<svg width="70" height="70" viewBox="0 0 70 70" fill="none" xmlns="http://www.w3.org/2000/svg">
<g clip-path="url(#clip0_36_3)">
<path d="M0 35C0 25.3385 3.41797 17.0898 10.254 10.2539C17.0898 3.41797 25.3385 0 35 0C44.6614 0 52.9101 3.41797 59.7461 10.2539C66.582 17.0898 70 25.3385 70 35C70 44.6614 66.582 52.9101 59.7461 59.746C52.9102 66.582 44.6615 70 35 70C25.3385 70 17.0898 66.582 10.254 59.746C3.41797 52.9102 0 44.6613 0 35ZM3.82812 35C3.82812 43.5677 6.8815 50.9049 12.9883 57.0117C19.095 63.1184 26.4323 66.1719 35 66.1719C43.5677 66.1719 50.905 63.1185 57.0117 57.0117C63.1185 50.905 66.1719 43.5677 66.1719 35C66.1719 26.4323 63.1186 19.095 57.0117 12.9883C50.905 6.8815 43.5677 3.82812 35 3.82812C26.4323 3.82812 19.0951 6.8815 12.9883 12.9883C6.8815 19.095 3.82812 26.4323 3.82812 35ZM13.6719 42.5195C13.4896 42.3372 13.4896 42.1549 13.6719 41.9726C14.0364 41.608 14.4922 41.4713 15.039 41.5625C15.5859 41.6536 15.9049 41.7447 15.9961 41.8359C16.6341 42.1093 17.3405 42.7245 18.1152 43.6816C18.8899 44.6387 19.5051 45.2994 19.9609 45.664C22.1484 47.4869 24.3814 47.6237 26.6601 46.0742C26.8424 45.4362 27.1386 44.8893 27.5487 44.4335C27.9588 43.9778 28.3463 43.6588 28.7108 43.4764C29.0755 43.2942 29.7135 43.0207 30.625 42.6561C27.6171 42.3827 25.179 41.8586 23.3105 41.0838C21.442 40.3091 19.9608 39.3293 18.8671 38.1444C17.4088 36.5038 16.5201 34.3619 16.2011 31.7186C15.882 29.0754 16.0871 26.6601 16.8163 24.4726C17.3632 23.1054 18.1379 21.875 19.1405 20.7812C18.4113 18.5025 18.548 15.9049 19.5506 12.9882C22.4673 13.1705 25.1105 14.1731 27.4803 15.996C32.0376 14.8111 36.7772 14.7655 41.699 15.8593C42.337 15.4036 43.3168 14.8339 44.6384 14.1503C45.96 13.4667 47.6234 13.0793 49.6286 12.9881C49.9932 13.9907 50.2439 15.1756 50.3806 16.5428C50.5174 17.91 50.449 19.186 50.1756 20.3709C52.2719 22.5584 53.3656 25.4751 53.4568 29.1209C53.4568 32.0376 52.9555 34.4529 51.9529 36.367C50.9503 38.2811 49.173 39.8761 46.6209 41.1521C44.8891 41.9725 42.6105 42.4737 39.785 42.656C41.0611 43.294 41.9953 43.9549 42.5877 44.6385C43.1803 45.322 43.5676 46.393 43.75 47.8513V52.158L43.8866 56.3279C44.16 56.7837 44.4791 57.1711 44.8437 57.4901C45.2083 57.8092 45.5273 58.037 45.8007 58.1737C46.0741 58.3105 46.1653 58.5156 46.0741 58.789C45.983 59.0624 45.6184 59.1992 44.9804 59.1992C43.4309 59.1992 42.2005 58.6523 41.289 57.5585C41.0156 57.1027 40.8789 56.5559 40.8789 55.9178V49.3553C40.8789 48.6262 40.6966 48.1021 40.332 47.7831C39.9674 47.464 39.6028 47.2589 39.2382 47.1678V55.7811C39.2382 57.3305 39.4205 58.3331 39.7851 58.7889C40.1497 59.2446 40.3776 59.7004 40.4688 60.1561C40.5599 60.2472 40.4915 60.3155 40.2637 60.3611C40.0359 60.4066 39.6485 60.3383 39.1015 60.1561C37.9166 59.8826 37.0963 59.2673 36.6406 58.3103C36.1849 57.3533 35.957 56.3279 35.957 55.2341V46.7578H34.1797V55.2343C34.1797 56.3281 33.9517 57.3763 33.496 58.3789C32.858 59.655 31.6731 60.3385 29.9414 60.4296C29.6679 60.3385 29.5312 60.2473 29.5312 60.1563C29.6224 60.065 29.8958 59.6094 30.3515 58.7891C30.4427 58.6068 30.5566 58.2422 30.6934 57.6953C30.8302 57.1485 30.8985 56.5104 30.8985 55.7813V47.1679C30.5339 47.2591 30.1921 47.4641 29.8731 47.7832C29.554 48.1023 29.3945 48.6263 29.3945 49.3555V55.918C29.3945 56.5559 29.2578 57.1029 28.9843 57.5586C28.164 58.6524 26.9336 59.1993 25.293 59.1993C24.655 59.1993 24.2904 59.0626 24.1993 58.7891C24.108 58.6069 24.1309 58.4473 24.2677 58.3106C24.4044 58.1739 24.6095 58.0143 24.8829 57.832C25.1564 57.6498 25.3387 57.513 25.4298 57.4219C25.7944 57.1485 26.0678 56.7839 26.2501 56.3281C26.5236 55.9636 26.5919 55.0065 26.4552 53.4571C26.3184 51.9076 26.2956 50.905 26.3868 50.4492C24.0169 51.2696 21.6016 50.8593 19.1406 49.2188C18.4114 48.4896 17.6823 47.4414 16.9531 46.0742C16.4062 45.0716 15.3125 43.8867 13.6719 42.5195Z" fill="#E95400"/>
</g>
<defs>
<clipPath id="clip0_36_3">
<rect width="70" height="70" fill="white"/>
</clipPath>
</defs>
</svg>
