<svg width="70" height="70" viewBox="0 0 70 70" fill="none" xmlns="http://www.w3.org/2000/svg">
<g clip-path="url(#clip0_44_49)">
<path d="M34.9999 6.30643C44.3454 6.30643 45.4523 6.342 49.1429 6.51039C52.5553 6.66613 54.4086 7.23631 55.642 7.71549C57.2756 8.35041 58.4416 9.10899 59.6663 10.3337C60.891 11.5584 61.6496 12.7244 62.2844 14.358C62.7637 15.5914 63.3339 17.4447 63.4896 20.857C63.658 24.5477 63.6936 25.6546 63.6936 35.0001C63.6936 44.3455 63.658 45.4524 63.4896 49.143C63.3339 52.5555 62.7637 54.4087 62.2844 55.6421C61.6496 57.2757 60.891 58.4418 59.6663 59.6665C58.4416 60.8912 57.2756 61.6497 55.642 62.2845C54.4086 62.7638 52.5553 63.334 49.1429 63.4898C45.4528 63.6581 44.3459 63.6937 34.9999 63.6937C25.6539 63.6937 24.547 63.6581 20.857 63.4898C17.4445 63.334 15.5913 62.7638 14.358 62.2845C12.7243 61.6497 11.5582 60.8912 10.3335 59.6665C9.10885 58.4418 8.35027 57.2757 7.71549 55.6421C7.23617 54.4087 6.66599 52.5555 6.51025 49.1431C6.34186 45.4524 6.3063 44.3455 6.3063 35.0001C6.3063 25.6546 6.34186 24.5477 6.51025 20.8571C6.66599 17.4447 7.23617 15.5914 7.71549 14.358C8.35027 12.7244 9.10885 11.5584 10.3335 10.3337C11.5582 9.10899 12.7243 8.35041 14.358 7.71549C15.5913 7.23631 17.4445 6.66613 20.8569 6.51039C24.5476 6.342 25.6545 6.30643 34.9999 6.30643ZM34.9999 0C25.4944 0 24.3027 0.0402905 20.5695 0.210622C16.8441 0.380676 14.2999 0.972251 12.0735 1.83752C9.77197 2.73197 7.82011 3.92874 5.87435 5.87449C3.9286 7.82024 2.73183 9.77211 1.83739 12.0737C0.972112 14.3001 0.380537 16.8442 0.210483 20.5697C0.0401516 24.3027 0 25.4946 0 35.0001C0 44.5056 0.0401516 45.6975 0.210483 49.4305C0.380537 53.1559 0.972112 55.7001 1.83739 57.9265C2.73183 60.2279 3.9286 62.1799 5.87435 64.1256C7.82011 66.0714 9.77197 67.2682 12.0735 68.1626C14.2999 69.0279 16.8441 69.6195 20.5695 69.7895C24.3027 69.9599 25.4944 70 34.9999 70C44.5054 70 45.6973 69.9599 49.4303 69.7895C53.1558 69.6195 55.6999 69.0279 57.9263 68.1626C60.2279 67.2682 62.1798 66.0714 64.1255 64.1256C66.0713 62.1799 67.268 60.228 68.1625 57.9265C69.0277 55.7001 69.6193 53.1559 69.7894 49.4305C69.9597 45.6975 70 44.5056 70 35.0001C70 25.4946 69.9597 24.3027 69.7894 20.5697C69.6193 16.8442 69.0277 14.3001 68.1625 12.0737C67.268 9.77211 66.0713 7.82024 64.1255 5.87449C62.1798 3.92874 60.2279 2.73197 57.9263 1.83752C55.6999 0.972251 53.1558 0.380676 49.4303 0.210622C45.6973 0.0402905 44.5054 0 34.9999 0ZM34.9999 17.027C25.0737 17.027 17.0269 25.0739 17.0269 35.0001C17.0269 44.9263 25.0737 52.9731 34.9999 52.9731C44.9261 52.9731 52.973 44.9263 52.973 35.0001C52.973 25.0739 44.9261 17.027 34.9999 17.027ZM34.9999 46.6668C28.5566 46.6668 23.3332 41.4434 23.3332 35.0001C23.3332 28.5568 28.5566 23.3333 34.9999 23.3333C41.4432 23.3333 46.6667 28.5568 46.6667 35.0001C46.6667 41.4434 41.4432 46.6668 34.9999 46.6668ZM57.883 16.317C57.883 18.6366 56.0027 20.517 53.683 20.517C51.3634 20.517 49.483 18.6366 49.483 16.317C49.483 13.9973 51.3634 12.117 53.683 12.117C56.0027 12.117 57.883 13.9973 57.883 16.317Z" fill="#E95400"/>
</g>
<defs>
<clipPath id="clip0_44_49">
<rect width="70" height="70" fill="white"/>
</clipPath>
</defs>
</svg>
