<svg width="469" height="278" viewBox="0 0 469 278" fill="none" xmlns="http://www.w3.org/2000/svg">
<mask id="path-1-inside-1_10_239" fill="white">
<path d="M0.708618 0H74.7086V82H0.708618V0Z"/>
</mask>
<path d="M72.7086 0V82H76.7086V0H72.7086Z" fill="#E95400" fill-opacity="0.7" mask="url(#path-1-inside-1_10_239)"/>
<rect x="2.70862" width="50" height="50" fill="#99871E"/>
<path d="M30.6774 20.0938L32.1149 21.5312L17.9586 35.6875H16.5211V34.25L30.6774 20.0938ZM36.3024 10.6875C35.9117 10.6875 35.5055 10.8437 35.2086 11.1406L32.3492 14L38.2086 19.8594L41.068 17C41.2128 16.8554 41.3278 16.6837 41.4062 16.4947C41.4846 16.3057 41.5249 16.1031 41.5249 15.8984C41.5249 15.6938 41.4846 15.4912 41.4062 15.3021C41.3278 15.1131 41.2128 14.9414 41.068 14.7969L37.4117 11.1406C37.0992 10.8281 36.7086 10.6875 36.3024 10.6875ZM30.6774 15.6719L13.3961 32.9531V38.8125H19.2555L36.5367 21.5312L30.6774 15.6719Z" fill="#F5E1D0"/>
<path d="M6.97906 77H2.33906V65.16H6.81906C10.2911 65.16 12.7071 67.592 12.7071 71.112C12.7071 74.568 10.3551 77 6.97906 77ZM6.56306 67.56H4.93106V74.6H6.72306C8.77106 74.6 9.97106 73.304 9.97106 71.112C9.97106 68.872 8.70706 67.56 6.56306 67.56ZM17.9189 77.208C15.5029 77.208 13.7749 75.448 13.7749 72.984C13.7749 70.488 15.4549 68.744 17.8709 68.744C20.3829 68.744 21.9509 70.392 21.9509 73V73.624L16.1429 73.656C16.2869 74.712 16.8789 75.208 17.9669 75.208C18.8949 75.208 19.5509 74.872 19.7269 74.296H21.9829C21.6949 76.072 20.1109 77.208 17.9189 77.208ZM17.8869 70.744C16.9109 70.744 16.3669 71.176 16.1749 72.136H19.5029C19.5029 71.288 18.8789 70.744 17.8869 70.744ZM22.8341 74.472H25.1701C25.2021 75.032 25.6181 75.368 26.3701 75.368C27.1381 75.368 27.4901 75.096 27.4901 74.68C27.4901 74.44 27.3621 74.184 26.7701 74.056L25.2981 73.736C23.8261 73.416 23.1061 72.776 23.1061 71.368C23.1061 69.704 24.5301 68.744 26.4501 68.744C28.3061 68.744 29.6021 69.832 29.6021 71.448H27.2661C27.2661 70.904 26.9301 70.536 26.3381 70.536C25.7781 70.536 25.4261 70.824 25.4261 71.256C25.4261 71.624 25.7301 71.832 26.2901 71.96L27.7781 72.28C29.0901 72.568 29.8101 73.176 29.8101 74.456C29.8101 76.168 28.3541 77.208 26.2741 77.208C24.1621 77.208 22.8341 76.088 22.8341 74.472ZM32.3136 67.752C31.5296 67.752 30.9056 67.128 30.9056 66.344C30.9056 65.56 31.5296 64.952 32.3136 64.952C33.0816 64.952 33.7056 65.56 33.7056 66.344C33.7056 67.128 33.0816 67.752 32.3136 67.752ZM31.0976 77V69H33.5616V77H31.0976ZM35.0101 72.856C35.0101 70.424 36.5941 68.728 38.8501 68.728C39.9381 68.728 40.8021 69.144 41.2341 69.8L41.3621 69H43.6821V76.488C43.6821 79.352 42.0341 81.08 39.2981 81.08C36.8501 81.08 35.2021 79.688 34.9781 77.416H37.4741C37.5221 78.312 38.1941 78.84 39.2821 78.84C40.4661 78.84 41.2181 78.136 41.2181 77V75.96C40.7381 76.536 39.8421 76.904 38.8021 76.904C36.5621 76.904 35.0101 75.256 35.0101 72.856ZM37.4901 72.792C37.4901 73.944 38.2581 74.76 39.3461 74.76C40.4661 74.76 41.2181 73.976 41.2181 72.792C41.2181 71.624 40.4661 70.872 39.3301 70.872C38.2421 70.872 37.4901 71.656 37.4901 72.792ZM47.9991 77H45.5351V69H47.8551L48.0151 69.832C48.5111 69.144 49.4231 68.744 50.4631 68.744C52.3671 68.744 53.4711 69.96 53.4711 72.056V77H51.0071V72.648C51.0071 71.64 50.4471 70.984 49.5991 70.984C48.6231 70.984 47.9991 71.624 47.9991 72.616V77Z" fill="#014620" fill-opacity="0.7"/>
<g clip-path="url(#clip0_10_239)">
<path d="M111.626 4.03008e-06H144.791C145.985 -0.00112026 147.168 0.233004 148.272 0.688979C149.376 1.14495 150.379 1.81383 151.223 2.65732C152.068 3.50081 152.738 4.50236 153.194 5.60465C153.651 6.70694 153.885 7.88832 153.884 9.0812V40.9188C153.885 42.1117 153.651 43.2931 153.194 44.3954C152.738 45.4976 152.068 46.4992 151.223 47.3427C150.379 48.1862 149.376 48.8551 148.272 49.311C147.168 49.767 145.985 50.0011 144.791 50H111.626C110.432 50.0011 109.249 49.767 108.145 49.311C107.041 48.8551 106.038 48.1862 105.194 47.3427C104.349 46.4992 103.679 45.4976 103.223 44.3954C102.766 43.2931 102.532 42.1117 102.533 40.9188V9.0812C102.532 7.88832 102.766 6.70694 103.223 5.60465C103.679 4.50236 104.349 3.50081 105.194 2.65732C106.038 1.81383 107.041 1.14495 108.145 0.688979C109.249 0.233004 110.432 -0.00112026 111.626 4.03008e-06Z" fill="#330000"/>
<path d="M127.417 30H119.458L117.831 35.0214C117.813 35.1129 117.761 35.1943 117.686 35.2497C117.611 35.305 117.518 35.3303 117.425 35.3205H113.402C113.167 35.3205 113.103 35.1923 113.167 34.9359L120.057 15.1282C120.121 14.9145 120.185 14.6795 120.271 14.4231C120.357 13.9651 120.4 13.5001 120.399 13.0342C120.393 12.9807 120.407 12.9267 120.438 12.8831C120.47 12.8395 120.517 12.8095 120.57 12.7991H126.112C126.283 12.7991 126.369 12.8632 126.39 12.9701L134.2 34.9786C134.264 35.2137 134.2 35.3205 133.986 35.3205H129.514C129.438 35.3278 129.362 35.3082 129.3 35.2652C129.237 35.2222 129.192 35.1586 129.171 35.0855L127.417 30ZM120.699 25.6624H126.133C126.005 25.2137 125.834 24.6795 125.641 24.1239C125.449 23.5684 125.256 22.9274 125.063 22.2863C124.871 21.6453 124.657 20.9829 124.443 20.3205C124.229 19.6581 124.036 19.0385 123.865 18.4188C123.694 17.7991 123.544 17.265 123.394 16.7521H123.352C123.159 17.6834 122.917 18.6036 122.624 19.5085C122.303 20.5342 121.982 21.6026 121.64 22.6709C121.34 23.7607 121.019 24.765 120.699 25.6624ZM138.864 16.453C138.513 16.4607 138.164 16.3985 137.837 16.2701C137.51 16.1417 137.212 15.9497 136.96 15.7051C136.47 15.1699 136.208 14.4643 136.232 13.7393C136.22 13.3861 136.282 13.0341 136.414 12.7065C136.547 12.3788 136.748 12.0827 137.003 11.8376C137.517 11.3522 138.199 11.0842 138.907 11.0897C139.741 11.0897 140.383 11.3462 140.854 11.8376C141.328 12.3557 141.581 13.0378 141.56 13.7393C141.573 14.1003 141.514 14.4603 141.385 14.7979C141.256 15.1356 141.061 15.4441 140.811 15.7051C140.559 15.9616 140.255 16.161 139.919 16.2901C139.583 16.4191 139.223 16.4746 138.864 16.453ZM136.468 35V18.547C136.468 18.3333 136.553 18.2479 136.746 18.2479H140.982C141.175 18.2479 141.26 18.3547 141.26 18.547V35C141.26 35.235 141.175 35.3419 140.982 35.3419H136.789C136.744 35.3456 136.698 35.3391 136.656 35.3229C136.614 35.3067 136.576 35.2812 136.545 35.2483C136.515 35.2155 136.492 35.1761 136.478 35.1331C136.465 35.0901 136.461 35.0446 136.468 35Z" fill="#FF9A00"/>
</g>
<path d="M96.7555 73.352V63.848C96.7555 62.872 96.5475 62.584 95.0595 62.584V62.2H100.275V62.584C98.7715 62.584 98.5635 62.872 98.5635 63.848V73.352C98.5635 74.328 98.7715 74.616 100.275 74.616V75H95.0595V74.616C96.5475 74.616 96.7555 74.328 96.7555 73.352ZM103.576 62.04V73.352C103.576 74.376 103.72 74.616 104.696 74.616V75H100.888V74.616C101.864 74.616 102.024 74.376 102.024 73.352V64.104C102.024 63.08 102.024 62.872 101.064 63.352L100.904 63L103.336 61.816L103.576 62.04ZM107.982 62.04V73.352C107.982 74.376 108.126 74.616 109.102 74.616V75H105.294V74.616C106.27 74.616 106.43 74.376 106.43 73.352V64.104C106.43 63.08 106.43 62.872 105.47 63.352L105.31 63L107.742 61.816L107.982 62.04ZM115.127 75.256L114.807 74.984L114.775 73.624L114.727 73.608C114.183 74.472 113.415 75.256 112.279 75.256C111.175 75.256 110.535 74.36 110.535 72.952V68.44C110.535 67.4 110.487 67.208 109.511 67.512L109.399 67.16L111.863 66.36L112.087 66.568V72.792C112.087 73.736 112.375 74.184 112.983 74.184C113.623 74.184 114.263 73.64 114.775 72.952V68.44C114.775 67.4 114.743 67.208 113.751 67.512L113.639 67.16L116.119 66.36L116.327 66.568V73.096C116.327 74.168 116.359 74.376 117.351 74.008L117.495 74.376L115.127 75.256ZM120.91 75.256C120.094 75.256 119.502 74.92 119.166 74.68C118.958 74.52 118.83 74.568 118.734 74.76L118.606 75.08H118.254L118.142 71.624H118.494C118.734 73.528 119.646 74.584 120.75 74.584C121.502 74.584 121.902 74.072 121.902 73.256C121.902 72.536 121.566 72.232 120.078 71.032C118.718 69.96 118.254 69.336 118.254 68.424C118.254 67.096 119.214 66.232 120.478 66.232C121.198 66.232 121.694 66.536 121.982 66.776C122.19 66.968 122.35 66.888 122.398 66.696L122.494 66.344H122.862L122.926 69.144H122.574C122.382 67.896 121.678 66.904 120.606 66.904C119.966 66.904 119.55 67.336 119.55 67.976C119.55 68.648 119.966 69 121.086 69.88C122.526 71.016 123.214 71.704 123.214 72.92C123.214 74.504 122.142 75.256 120.91 75.256ZM128.446 71.416H128.894C128.894 73.912 128.398 75.256 126.83 75.256C125.582 75.256 124.926 74.504 124.926 72.264V67.176H123.806V66.584C124.974 66.552 125.71 65.688 125.87 64.184H126.446V66.52H128.366V67.176H126.478V71.848C126.478 73.272 126.622 74.216 127.374 74.216C128.094 74.216 128.446 73.32 128.446 71.416ZM134.222 66.232C134.782 66.232 135.086 66.552 135.086 67.08C135.086 67.704 134.718 68.104 134.302 68.104C134.014 68.104 133.886 67.992 133.678 67.768C133.47 67.56 133.39 67.496 133.198 67.496C132.83 67.496 132.398 68.024 132.062 69V73.256C132.062 74.344 132.302 74.6 133.758 74.6V75H129.438V74.616C130.366 74.616 130.526 74.376 130.526 73.352V68.424C130.526 67.352 130.526 67.128 129.566 67.528L129.406 67.16L130.686 66.648L131.774 66.2L132.062 66.44V67.976H132.11C132.558 67.128 133.342 66.232 134.222 66.232ZM142.111 73.192H142.479C142.431 74.408 142.047 75.256 140.991 75.256C140.079 75.256 139.535 74.648 139.535 73.16V72.872C139.167 74.376 138.319 75.256 137.167 75.256C136.031 75.256 135.391 74.408 135.391 73.368C135.391 71.352 137.711 70.456 139.535 69.64V68.712C139.535 67.336 139.087 66.856 138.303 66.856C137.679 66.856 137.231 67.176 137.231 67.704C137.231 68.072 137.455 68.28 137.455 68.648C137.455 69.08 137.183 69.384 136.671 69.384C136.095 69.384 135.791 68.984 135.791 68.392C135.791 67.208 136.943 66.216 138.559 66.216C140.111 66.216 141.071 67.096 141.071 68.824V73.544C141.071 74.328 141.231 74.52 141.487 74.52C141.823 74.52 142.079 74.2 142.111 73.192ZM137.791 74.04C138.431 74.04 139.119 73.448 139.535 72.056V70.168C138.239 70.84 136.927 71.608 136.927 72.936C136.927 73.608 137.231 74.04 137.791 74.04ZM146.978 71.416H147.426C147.426 73.912 146.93 75.256 145.362 75.256C144.114 75.256 143.458 74.504 143.458 72.264V67.176H142.338V66.584C143.506 66.552 144.242 65.688 144.402 64.184H144.978V66.52H146.898V67.176H145.01V71.848C145.01 73.272 145.154 74.216 145.906 74.216C146.626 74.216 146.978 73.32 146.978 71.416ZM151.629 75.256C149.549 75.256 148.189 73.416 148.189 70.792C148.189 68.216 149.453 66.232 151.629 66.232C153.693 66.232 155.069 68.072 155.069 70.696C155.069 73.272 153.789 75.256 151.629 75.256ZM151.869 74.552C153.005 74.552 153.453 73.048 153.453 71.64C153.453 69.464 152.797 66.936 151.389 66.936C150.253 66.936 149.789 68.44 149.789 69.848C149.789 72.024 150.461 74.552 151.869 74.552ZM160.581 66.232C161.141 66.232 161.445 66.552 161.445 67.08C161.445 67.704 161.077 68.104 160.661 68.104C160.373 68.104 160.245 67.992 160.037 67.768C159.829 67.56 159.749 67.496 159.557 67.496C159.189 67.496 158.757 68.024 158.421 69V73.256C158.421 74.344 158.661 74.6 160.117 74.6V75H155.797V74.616C156.725 74.616 156.885 74.376 156.885 73.352V68.424C156.885 67.352 156.885 67.128 155.925 67.528L155.765 67.16L157.045 66.648L158.133 66.2L158.421 66.44V67.976H158.469C158.917 67.128 159.701 66.232 160.581 66.232Z" fill="#014620"/>
<g clip-path="url(#clip1_10_239)">
<path d="M194.377 50C198.976 50 202.709 46.2667 202.709 41.6667V33.3333H194.377C189.778 33.3333 186.045 37.0667 186.045 41.6667C186.045 46.2667 189.778 50 194.377 50Z" fill="#0ACF83"/>
<path d="M186.045 25C186.045 20.4 189.778 16.6667 194.377 16.6667H202.709V33.3333H194.377C189.778 33.3333 186.045 29.6 186.045 25Z" fill="#A259FF"/>
<path d="M186.045 8.33333C186.045 3.73333 189.778 0 194.377 0H202.709V16.6667H194.377C189.778 16.6667 186.045 12.9333 186.045 8.33333Z" fill="#F24E1E"/>
<path d="M202.709 0H211.04C215.639 0 219.372 3.73333 219.372 8.33333C219.372 12.9333 215.639 16.6667 211.04 16.6667H202.709V0Z" fill="#FF7262"/>
<path d="M219.372 25C219.372 29.6 215.639 33.3333 211.04 33.3333C206.441 33.3333 202.709 29.6 202.709 25C202.709 20.4 206.441 16.6667 211.04 16.6667C215.639 16.6667 219.372 20.4 219.372 25Z" fill="#1ABCFE"/>
</g>
<path d="M191.354 62.2L191.402 62.68L191.626 65.448L191.194 65.48C191.002 63.272 190.634 62.92 189.498 62.92H186.714C186.218 62.92 185.962 63.192 185.962 63.672V68.376H188.138C189.114 68.376 189.402 68.136 189.402 66.488H189.786V70.888H189.402C189.402 69.24 189.114 69.016 188.138 69.016H185.962V73.352C185.962 74.328 186.186 74.616 187.802 74.616V75H182.458V74.616C183.946 74.616 184.154 74.328 184.154 73.352V63.848C184.154 62.872 183.946 62.584 182.458 62.584V62.2H191.354ZM193.206 64.664C192.598 64.664 192.166 64.248 192.166 63.688C192.166 63.112 192.598 62.696 193.206 62.696C193.798 62.696 194.23 63.112 194.23 63.688C194.23 64.248 193.798 64.664 193.206 64.664ZM194.102 66.44V73.352C194.102 74.376 194.262 74.616 195.238 74.616V75H191.43V74.616C192.406 74.616 192.566 74.376 192.566 73.352V68.424C192.566 67.352 192.55 67.128 191.622 67.512L191.478 67.144L193.83 66.2L194.102 66.44ZM199.098 73.72H200.954C202.618 73.72 203.37 74.2 203.37 75.416C203.37 77.192 201.45 78.776 198.762 78.776C197.05 78.776 195.562 78.152 195.562 76.84C195.562 75.928 196.234 75.32 197.242 74.872C196.586 74.616 196.298 74.168 196.298 73.624C196.298 72.888 196.81 72.36 197.53 71.912C196.746 71.384 196.298 70.472 196.298 69.368C196.298 67.576 197.45 66.248 199.29 66.248C199.898 66.248 200.426 66.392 200.874 66.664C201.514 66.296 202.202 66.136 202.698 66.136C203.162 66.136 203.29 66.36 203.29 66.616C203.29 66.92 203.098 67.16 202.714 67.16C202.106 67.16 201.674 66.84 201.21 66.904C201.85 67.448 202.218 68.28 202.218 69.32C202.218 71.144 201.066 72.408 199.274 72.408C198.778 72.408 198.33 72.312 197.946 72.136C197.626 72.392 197.418 72.648 197.418 72.968C197.418 73.384 197.546 73.72 199.098 73.72ZM199.082 66.856C198.202 66.856 197.866 67.8 197.866 68.808C197.866 70.152 198.298 71.784 199.466 71.784C200.298 71.784 200.666 70.984 200.666 69.912C200.666 68.52 200.186 66.856 199.082 66.856ZM199.146 77.816C201.178 77.816 202.474 76.808 202.474 75.912C202.474 75.288 202.042 75.144 200.906 75.144H198.922C198.474 75.144 198.09 75.112 197.77 75.032C197.226 75.464 196.842 75.944 196.842 76.456C196.842 77.128 197.466 77.816 199.146 77.816ZM214.496 68.536V73.352C214.496 74.376 214.64 74.616 215.568 74.616V75H212.032V74.616C212.832 74.616 212.96 74.376 212.96 73.352V68.616C212.96 67.752 212.64 67.352 212.064 67.352C211.488 67.352 210.976 67.752 210.416 68.504V68.536V73.352C210.416 74.376 210.544 74.616 211.344 74.616V75H207.936V74.616C208.752 74.616 208.88 74.376 208.88 73.352V68.616C208.88 67.752 208.56 67.352 207.984 67.352C207.392 67.352 206.864 67.768 206.288 68.568V73.352C206.288 74.376 206.416 74.616 207.232 74.616V75H203.664V74.616C204.608 74.616 204.752 74.376 204.752 73.352V68.424C204.752 67.352 204.752 67.144 203.808 67.528L203.648 67.176L205.984 66.2L206.288 66.44V67.912H206.336C206.944 67 207.632 66.232 208.72 66.232C209.664 66.232 210.224 66.824 210.384 67.912H210.432C211.024 67 211.712 66.232 212.8 66.232C213.92 66.232 214.496 67.064 214.496 68.536ZM222.947 73.192H223.315C223.267 74.408 222.883 75.256 221.827 75.256C220.915 75.256 220.371 74.648 220.371 73.16V72.872C220.003 74.376 219.155 75.256 218.003 75.256C216.867 75.256 216.227 74.408 216.227 73.368C216.227 71.352 218.547 70.456 220.371 69.64V68.712C220.371 67.336 219.923 66.856 219.139 66.856C218.515 66.856 218.067 67.176 218.067 67.704C218.067 68.072 218.291 68.28 218.291 68.648C218.291 69.08 218.019 69.384 217.507 69.384C216.931 69.384 216.627 68.984 216.627 68.392C216.627 67.208 217.779 66.216 219.395 66.216C220.947 66.216 221.907 67.096 221.907 68.824V73.544C221.907 74.328 222.067 74.52 222.323 74.52C222.659 74.52 222.915 74.2 222.947 73.192ZM218.627 74.04C219.267 74.04 219.955 73.448 220.371 72.056V70.168C219.075 70.84 217.763 71.608 217.763 72.936C217.763 73.608 218.067 74.04 218.627 74.04Z" fill="#014620"/>
<g clip-path="url(#clip2_10_239)">
<path d="M257.722 4.03008e-06H290.696C291.883 -0.00112026 293.059 0.233004 294.157 0.688979C295.254 1.14495 296.251 1.81383 297.091 2.65732C297.931 3.50081 298.597 4.50236 299.051 5.60465C299.505 6.70694 299.738 7.88832 299.737 9.0812V40.9188C299.738 42.1117 299.505 43.2931 299.051 44.3954C298.597 45.4976 297.931 46.4992 297.091 47.3427C296.251 48.1862 295.254 48.8551 294.157 49.311C293.059 49.767 291.883 50.0011 290.696 50H257.722C256.534 50.0011 255.358 49.767 254.26 49.311C253.163 48.8551 252.166 48.1862 251.326 47.3427C250.486 46.4992 249.82 45.4976 249.366 44.3954C248.912 43.2931 248.679 42.1117 248.68 40.9188V9.0812C248.679 7.88832 248.912 6.70694 249.366 5.60465C249.82 4.50236 250.486 3.50081 251.326 2.65732C252.166 1.81383 253.163 1.14495 254.26 0.688979C255.358 0.233004 256.534 -0.00112026 257.722 4.03008e-06Z" fill="#49021F"/>
<path d="M267.231 13.0769V35C267.231 35.235 267.125 35.3419 266.933 35.3419H262.763C262.572 35.3419 262.487 35.235 262.487 35V13.0769C262.487 12.8846 262.593 12.7992 262.785 12.7992H266.933C266.965 12.794 266.998 12.7956 267.03 12.8037C267.062 12.8118 267.091 12.8263 267.117 12.8463C267.143 12.8663 267.165 12.8914 267.18 12.92C267.196 12.9486 267.206 12.9802 267.21 13.0128C267.218 13.0213 267.224 13.0314 267.227 13.0425C267.231 13.0536 267.232 13.0653 267.231 13.0769ZM279.484 35.6838C277.908 35.7098 276.345 35.3812 274.911 34.7222C273.576 34.0955 272.458 33.0838 271.698 31.8162C270.911 30.5128 270.528 28.8889 270.528 26.9445C270.507 25.3632 270.911 23.8054 271.698 22.4359C272.506 21.044 273.675 19.8991 275.081 19.1239C276.57 18.2906 278.357 17.8846 280.463 17.8846C280.612 17.8829 280.761 17.8901 280.91 17.906C281.101 17.9274 281.314 17.9274 281.569 17.9487V11.1966C281.569 11.047 281.633 10.9615 281.782 10.9615H286.1C286.148 10.9551 286.197 10.9669 286.236 10.9946C286.275 11.0223 286.303 11.0639 286.313 11.1111V31.4957C286.313 31.8803 286.335 32.3077 286.356 32.7778C286.377 33.2479 286.42 33.6539 286.441 34.0171C286.445 34.0893 286.427 34.161 286.389 34.2224C286.351 34.2837 286.295 34.3315 286.228 34.359C285.114 34.8294 283.951 35.1734 282.761 35.3846C281.679 35.5814 280.583 35.6815 279.484 35.6838ZM281.569 31.4103V22.0086C281.38 21.9626 281.188 21.927 280.995 21.9017C280.761 21.8803 280.527 21.859 280.293 21.859C279.459 21.8495 278.635 22.04 277.889 22.4145C277.162 22.7784 276.54 23.3226 276.081 23.9957C275.613 24.6795 275.379 25.5983 275.379 26.7094C275.36 27.4594 275.483 28.2061 275.74 28.9103C275.946 29.4797 276.273 29.9974 276.698 30.4274C277.108 30.8205 277.603 31.113 278.144 31.2821C278.714 31.4695 279.31 31.5633 279.91 31.5598C280.229 31.5598 280.527 31.5385 280.803 31.5171C281.063 31.5372 281.325 31.5008 281.569 31.4103Z" fill="#FF3366"/>
</g>
<path d="M246.068 73.352V63.848C246.068 62.872 245.86 62.584 244.372 62.584V62.2H249.588V62.584C248.084 62.584 247.876 62.872 247.876 63.848V73.352C247.876 74.328 248.084 74.616 249.588 74.616V75H244.372V74.616C245.86 74.616 246.068 74.328 246.068 73.352ZM250.328 75V74.616C251.256 74.616 251.416 74.376 251.416 73.352V68.424C251.416 67.352 251.416 67.128 250.456 67.528L250.296 67.16L251.576 66.648L252.664 66.2L252.968 66.44V67.912H253.016C253.736 66.92 254.456 66.232 255.544 66.232C256.68 66.232 257.304 67.048 257.304 68.552V73.352C257.304 74.376 257.448 74.616 258.36 74.616V75H254.776V74.616C255.624 74.616 255.752 74.376 255.752 73.352V68.648C255.752 67.768 255.416 67.352 254.808 67.352C254.152 67.352 253.576 67.8 252.968 68.584V73.352C252.968 74.376 253.096 74.616 253.944 74.616V75H250.328ZM263.734 75H258.966V74.616C260.454 74.616 260.662 74.328 260.662 73.352V63.848C260.662 62.872 260.454 62.584 258.966 62.584V62.2H263.574C266.934 62.2 269.958 64.2 269.958 68.664C269.958 72.952 267.158 75 263.734 75ZM263.542 74.344C266.598 74.344 268.07 71.928 268.07 68.776C268.07 65.112 266.07 62.856 263.558 62.856C263.206 62.856 262.902 62.904 262.774 62.952C262.566 63 262.47 63.144 262.47 63.368V73.656C262.47 74.184 262.838 74.344 263.542 74.344ZM276.505 71.576H276.889C276.553 74.152 275.465 75.256 273.961 75.256C272.153 75.256 271.017 73.544 271.017 70.904C271.017 68.376 272.137 66.232 274.041 66.232C275.913 66.232 276.793 67.992 276.793 70.328H272.569V70.36C272.569 72.536 273.241 74.072 274.569 74.072C275.289 74.072 276.121 73.512 276.505 71.576ZM274.041 66.904C273.081 66.904 272.681 68.072 272.585 69.672H275.257C275.257 68.136 274.985 66.904 274.041 66.904ZM280.676 75.256C279.86 75.256 279.268 74.92 278.932 74.68C278.724 74.52 278.596 74.568 278.5 74.76L278.372 75.08H278.02L277.908 71.624H278.26C278.5 73.528 279.412 74.584 280.516 74.584C281.268 74.584 281.668 74.072 281.668 73.256C281.668 72.536 281.332 72.232 279.844 71.032C278.484 69.96 278.02 69.336 278.02 68.424C278.02 67.096 278.98 66.232 280.244 66.232C280.964 66.232 281.46 66.536 281.748 66.776C281.956 66.968 282.116 66.888 282.164 66.696L282.26 66.344H282.628L282.692 69.144H282.34C282.148 67.896 281.444 66.904 280.372 66.904C279.732 66.904 279.316 67.336 279.316 67.976C279.316 68.648 279.732 69 280.852 69.88C282.292 71.016 282.98 71.704 282.98 72.92C282.98 74.504 281.908 75.256 280.676 75.256ZM285.542 64.664C284.934 64.664 284.502 64.248 284.502 63.688C284.502 63.112 284.934 62.696 285.542 62.696C286.134 62.696 286.566 63.112 286.566 63.688C286.566 64.248 286.134 64.664 285.542 64.664ZM286.438 66.44V73.352C286.438 74.376 286.598 74.616 287.574 74.616V75H283.766V74.616C284.742 74.616 284.902 74.376 284.902 73.352V68.424C284.902 67.352 284.886 67.128 283.958 67.512L283.814 67.144L286.166 66.2L286.438 66.44ZM291.434 73.72H293.29C294.954 73.72 295.706 74.2 295.706 75.416C295.706 77.192 293.786 78.776 291.098 78.776C289.386 78.776 287.898 78.152 287.898 76.84C287.898 75.928 288.57 75.32 289.578 74.872C288.922 74.616 288.634 74.168 288.634 73.624C288.634 72.888 289.146 72.36 289.866 71.912C289.082 71.384 288.634 70.472 288.634 69.368C288.634 67.576 289.786 66.248 291.626 66.248C292.234 66.248 292.762 66.392 293.21 66.664C293.85 66.296 294.538 66.136 295.034 66.136C295.498 66.136 295.626 66.36 295.626 66.616C295.626 66.92 295.434 67.16 295.05 67.16C294.442 67.16 294.01 66.84 293.546 66.904C294.186 67.448 294.554 68.28 294.554 69.32C294.554 71.144 293.402 72.408 291.61 72.408C291.114 72.408 290.666 72.312 290.282 72.136C289.962 72.392 289.754 72.648 289.754 72.968C289.754 73.384 289.882 73.72 291.434 73.72ZM291.418 66.856C290.538 66.856 290.202 67.8 290.202 68.808C290.202 70.152 290.634 71.784 291.802 71.784C292.634 71.784 293.002 70.984 293.002 69.912C293.002 68.52 292.522 66.856 291.418 66.856ZM291.482 77.816C293.514 77.816 294.81 76.808 294.81 75.912C294.81 75.288 294.378 75.144 293.242 75.144H291.258C290.81 75.144 290.426 75.112 290.106 75.032C289.562 75.464 289.178 75.944 289.178 76.456C289.178 77.128 289.802 77.816 291.482 77.816ZM296.016 75V74.616C296.944 74.616 297.104 74.376 297.104 73.352V68.424C297.104 67.352 297.104 67.128 296.144 67.528L295.984 67.16L297.264 66.648L298.352 66.2L298.656 66.44V67.912H298.704C299.424 66.92 300.144 66.232 301.232 66.232C302.368 66.232 302.992 67.048 302.992 68.552V73.352C302.992 74.376 303.136 74.616 304.048 74.616V75H300.464V74.616C301.312 74.616 301.44 74.376 301.44 73.352V68.648C301.44 67.768 301.104 67.352 300.496 67.352C299.84 67.352 299.264 67.8 298.656 68.584V73.352C298.656 74.376 298.784 74.616 299.632 74.616V75H296.016Z" fill="#014620"/>
<mask id="path-18-inside-2_10_239" fill="white">
<path d="M0.708618 98H74.7086V180H0.708618V98Z"/>
</mask>
<path d="M72.7086 98V180H76.7086V98H72.7086Z" fill="#E95400" fill-opacity="0.7" mask="url(#path-18-inside-2_10_239)"/>
<rect x="2.70862" y="98" width="50" height="50" fill="#99871E"/>
<path d="M19.6461 116.5L13.3961 122.75L19.6461 129M35.2711 116.5L41.5211 122.75L35.2711 129M30.5836 110.25L24.3336 135.25" stroke="#F5E1D0" stroke-width="3" stroke-linecap="round" stroke-linejoin="round"/>
<path d="M13.2169 175.192C9.66487 175.192 7.44087 172.84 7.44087 169.096C7.44087 165.4 9.79287 162.968 13.3289 162.968C16.2889 162.968 18.4169 164.664 18.7849 167.32H16.0489C15.6969 166.136 14.6889 165.464 13.2649 165.464C11.3449 165.464 10.1769 166.824 10.1769 169.08C10.1769 171.304 11.3609 172.696 13.2649 172.696C14.7209 172.696 15.7929 171.976 16.1129 170.808H18.8009C18.3849 173.448 16.1769 175.192 13.2169 175.192ZM19.7984 170.984C19.7984 168.456 21.6544 166.76 24.2144 166.76C26.7584 166.76 28.6144 168.456 28.6144 170.984C28.6144 173.512 26.7584 175.192 24.2144 175.192C21.6544 175.192 19.7984 173.512 19.7984 170.984ZM22.2784 170.968C22.2784 172.184 23.0624 172.984 24.2144 172.984C25.3504 172.984 26.1344 172.184 26.1344 170.968C26.1344 169.768 25.3504 168.968 24.2144 168.968C23.0624 168.968 22.2784 169.768 22.2784 170.968ZM33.4029 175.208C31.0989 175.208 29.6109 173.576 29.6109 171.048C29.6109 168.504 31.1309 166.744 33.5629 166.744C34.5549 166.744 35.4989 167.144 35.9629 167.736V162.936H38.4269V175H36.1069L35.9789 173.976C35.5469 174.712 34.5549 175.208 33.4029 175.208ZM33.9949 172.952C35.1469 172.952 35.9469 172.152 35.9469 170.952C35.9469 169.752 35.1469 168.952 33.9949 168.952C32.8269 168.952 32.0909 169.768 32.0909 170.952C32.0909 172.136 32.8269 172.952 33.9949 172.952ZM43.9892 175.208C41.5732 175.208 39.8452 173.448 39.8452 170.984C39.8452 168.488 41.5252 166.744 43.9412 166.744C46.4532 166.744 48.0212 168.392 48.0212 171V171.624L42.2132 171.656C42.3572 172.712 42.9492 173.208 44.0372 173.208C44.9652 173.208 45.6212 172.872 45.7972 172.296H48.0532C47.7652 174.072 46.1812 175.208 43.9892 175.208ZM43.9572 168.744C42.9812 168.744 42.4372 169.176 42.2452 170.136H45.5732C45.5732 169.288 44.9492 168.744 43.9572 168.744Z" fill="#014620" fill-opacity="0.7"/>
<g clip-path="url(#clip3_10_239)">
<path d="M103.209 98H153.209V148H103.209V98Z" fill="#F0DB4F"/>
<path d="M149.116 136.075C148.75 133.794 147.263 131.878 142.857 130.091C141.326 129.388 139.62 128.884 139.112 127.724C138.931 127.049 138.907 126.669 139.021 126.26C139.349 124.934 140.932 124.521 142.187 124.901C142.995 125.172 143.76 125.795 144.221 126.788C146.379 125.391 146.374 125.4 147.881 124.44C147.329 123.585 147.035 123.19 146.673 122.824C145.376 121.375 143.608 120.628 140.78 120.685C140.29 120.747 139.796 120.814 139.306 120.876C137.895 121.232 136.55 121.973 135.761 122.967C133.394 125.652 134.069 130.353 136.949 132.287C139.787 134.416 143.955 134.901 144.487 136.893C145.005 139.331 142.695 140.12 140.4 139.839C138.708 139.488 137.767 138.627 136.749 137.064C134.877 138.147 134.877 138.147 132.952 139.255C133.408 140.253 133.888 140.704 134.653 141.569C138.275 145.243 147.339 145.063 148.964 139.502C149.031 139.312 149.468 138.038 149.116 136.075ZM130.39 120.98H125.713C125.713 125.02 125.694 129.031 125.694 133.071C125.694 135.643 125.827 138 125.409 138.722C124.725 140.143 122.952 139.968 122.144 139.692C121.322 139.288 120.903 138.713 120.419 137.9C120.286 137.667 120.186 137.487 120.153 137.472C118.884 138.247 117.619 139.027 116.35 139.801C116.982 141.099 117.914 142.225 119.107 142.957C120.889 144.027 123.285 144.355 125.789 143.779C127.42 143.304 128.826 142.32 129.563 140.823C130.628 138.86 130.4 136.484 130.39 133.856C130.414 129.568 130.39 125.281 130.39 120.98Z" fill="#323330"/>
</g>
<path d="M98.8909 170.136V161.848C98.8909 160.872 98.6669 160.584 97.1789 160.584V160.2H102.395V160.584C100.907 160.584 100.683 160.872 100.683 161.848V169.64C100.683 172.264 99.5149 173.256 97.8029 173.256C96.0269 173.256 95.1469 172.152 95.1469 171.064C95.1469 170.392 95.5629 170.04 96.0589 170.04C96.6189 170.04 96.9549 170.36 96.9549 170.84C96.9549 171.064 96.9069 171.272 96.9069 171.56C96.9069 172.168 97.1789 172.616 97.7709 172.616C98.6189 172.616 98.8909 171.8 98.8909 170.136ZM108.728 171.192H109.096C109.048 172.408 108.664 173.256 107.608 173.256C106.696 173.256 106.152 172.648 106.152 171.16V170.872C105.784 172.376 104.936 173.256 103.784 173.256C102.648 173.256 102.008 172.408 102.008 171.368C102.008 169.352 104.328 168.456 106.152 167.64V166.712C106.152 165.336 105.704 164.856 104.92 164.856C104.296 164.856 103.848 165.176 103.848 165.704C103.848 166.072 104.072 166.28 104.072 166.648C104.072 167.08 103.8 167.384 103.288 167.384C102.712 167.384 102.408 166.984 102.408 166.392C102.408 165.208 103.56 164.216 105.176 164.216C106.728 164.216 107.688 165.096 107.688 166.824V171.544C107.688 172.328 107.848 172.52 108.104 172.52C108.44 172.52 108.696 172.2 108.728 171.192ZM104.408 172.04C105.048 172.04 105.736 171.448 106.152 170.056V168.168C104.856 168.84 103.544 169.608 103.544 170.936C103.544 171.608 103.848 172.04 104.408 172.04ZM112.507 170.792L113.931 166.104C114.235 165.112 114.251 164.904 113.195 164.904V164.52H115.963V164.904C115.227 164.904 114.923 165.112 114.619 166.104L112.443 173.128H111.579L109.403 166.104C109.099 165.112 108.811 164.904 108.139 164.904V164.52H111.851V164.904C110.779 164.904 110.779 165.112 111.067 166.104L112.411 170.792H112.507ZM122.494 171.192H122.862C122.814 172.408 122.43 173.256 121.374 173.256C120.462 173.256 119.918 172.648 119.918 171.16V170.872C119.55 172.376 118.702 173.256 117.55 173.256C116.414 173.256 115.774 172.408 115.774 171.368C115.774 169.352 118.094 168.456 119.918 167.64V166.712C119.918 165.336 119.47 164.856 118.686 164.856C118.062 164.856 117.614 165.176 117.614 165.704C117.614 166.072 117.838 166.28 117.838 166.648C117.838 167.08 117.566 167.384 117.054 167.384C116.478 167.384 116.174 166.984 116.174 166.392C116.174 165.208 117.326 164.216 118.942 164.216C120.494 164.216 121.454 165.096 121.454 166.824V171.544C121.454 172.328 121.614 172.52 121.87 172.52C122.206 172.52 122.462 172.2 122.494 171.192ZM118.174 172.04C118.814 172.04 119.502 171.448 119.918 170.056V168.168C118.622 168.84 117.31 169.608 117.31 170.936C117.31 171.608 117.614 172.04 118.174 172.04ZM127.098 173.256C126.122 173.256 125.226 172.808 124.586 172.184C124.33 171.928 124.138 171.944 124.074 172.312L123.93 173.048H123.53L123.562 168.264H123.978C124.09 170.584 125.306 172.584 127.066 172.584C128.442 172.584 129.034 171.512 129.034 170.52C129.034 169.048 127.898 168.104 126.586 167.112C124.986 165.896 123.642 164.888 123.642 163C123.642 161.096 125.018 159.944 126.826 159.944C127.754 159.944 128.394 160.232 128.954 160.76C129.226 161 129.45 160.936 129.498 160.584L129.578 160.104H129.962L130.154 164.312H129.754C129.594 162.344 128.634 160.6 126.938 160.6C125.754 160.6 125.114 161.464 125.114 162.456C125.114 163.704 126.042 164.472 127.53 165.592C129.194 166.824 130.506 167.928 130.506 169.896C130.506 171.912 129.066 173.256 127.098 173.256ZM134.532 173.256C132.66 173.256 131.572 171.464 131.572 168.904C131.572 166.248 132.74 164.232 134.804 164.232C136.148 164.232 137.06 165.112 137.06 166.312C137.06 166.984 136.756 167.384 136.212 167.384C135.716 167.384 135.46 167.048 135.46 166.648C135.46 166.376 135.572 166.056 135.572 165.72C135.572 165.176 135.268 164.904 134.788 164.904C133.636 164.904 133.156 166.488 133.156 168.296C133.156 170.376 133.796 172.04 135.108 172.04C135.828 172.04 136.644 171.496 136.932 169.48H137.316C137.14 172.136 135.972 173.256 134.532 173.256ZM142.808 164.232C143.368 164.232 143.672 164.552 143.672 165.08C143.672 165.704 143.304 166.104 142.888 166.104C142.6 166.104 142.472 165.992 142.264 165.768C142.056 165.56 141.976 165.496 141.784 165.496C141.416 165.496 140.984 166.024 140.648 167V171.256C140.648 172.344 140.888 172.6 142.344 172.6V173H138.024V172.616C138.952 172.616 139.112 172.376 139.112 171.352V166.424C139.112 165.352 139.112 165.128 138.152 165.528L137.992 165.16L139.272 164.648L140.36 164.2L140.648 164.44V165.976H140.696C141.144 165.128 141.928 164.232 142.808 164.232ZM145.971 162.664C145.363 162.664 144.931 162.248 144.931 161.688C144.931 161.112 145.363 160.696 145.971 160.696C146.563 160.696 146.995 161.112 146.995 161.688C146.995 162.248 146.563 162.664 145.971 162.664ZM146.867 164.44V171.352C146.867 172.376 147.027 172.616 148.003 172.616V173H144.195V172.616C145.171 172.616 145.331 172.376 145.331 171.352V166.424C145.331 165.352 145.315 165.128 144.387 165.512L144.243 165.144L146.595 164.2L146.867 164.44ZM153.4 164.232C155.016 164.232 155.784 165.976 155.784 168.44C155.784 171.064 154.776 173.192 153.032 173.192C152.28 173.192 151.544 172.808 151.112 172.04H151.08V174.872C151.08 175.912 151.24 176.136 152.216 176.136V176.52H148.408V176.136C149.384 176.136 149.528 175.912 149.528 174.872V166.424C149.528 165.352 149.528 165.128 148.568 165.512L148.424 165.144L150.824 164.2L151.08 164.44V165.848H151.144C151.768 164.824 152.504 164.232 153.4 164.232ZM152.632 172.424C153.72 172.424 154.104 170.632 154.104 168.68C154.104 166.536 153.672 165.336 152.744 165.336C152.088 165.336 151.496 165.912 151.08 166.616V169.528C151.08 171.32 151.784 172.424 152.632 172.424ZM160.939 169.416H161.387C161.387 171.912 160.891 173.256 159.323 173.256C158.075 173.256 157.419 172.504 157.419 170.264V165.176H156.299V164.584C157.467 164.552 158.203 163.688 158.363 162.184H158.939V164.52H160.859V165.176H158.971V169.848C158.971 171.272 159.115 172.216 159.867 172.216C160.587 172.216 160.939 171.32 160.939 169.416Z" fill="#014620"/>
<g clip-path="url(#clip4_10_239)">
<path d="M192.209 123V98H242.209V148H192.209" fill="#007ACC"/>
<path d="M203.171 123.087V125.125H209.671V143.625H214.284V125.125H220.784V123.125C220.784 122 220.784 121.087 220.734 121.062C220.734 121.025 216.771 121.012 211.959 121.012L203.209 121.05V123.1L203.171 123.087ZM232.384 121C233.659 121.3 234.634 121.875 235.509 122.787C235.971 123.287 236.659 124.162 236.709 124.387C236.709 124.462 234.546 125.925 233.234 126.737C233.184 126.775 232.984 126.562 232.784 126.237C232.134 125.312 231.471 124.912 230.434 124.837C228.934 124.737 227.934 125.525 227.934 126.837C227.934 127.237 228.009 127.462 228.159 127.787C228.496 128.475 229.121 128.887 231.059 129.737C234.634 131.275 236.184 132.287 237.121 133.737C238.184 135.362 238.421 137.912 237.709 139.825C236.909 141.912 234.959 143.325 232.171 143.787C231.296 143.937 229.296 143.912 228.359 143.75C226.359 143.375 224.446 142.375 223.271 141.087C222.809 140.587 221.921 139.25 221.971 139.162L222.446 138.862L224.321 137.775L225.734 136.95L226.059 137.387C226.471 138.037 227.396 138.912 227.934 139.212C229.559 140.05 231.734 139.937 232.809 138.962C233.271 138.537 233.471 138.087 233.471 137.462C233.471 136.887 233.384 136.625 233.096 136.187C232.696 135.637 231.896 135.187 229.646 134.187C227.059 133.087 225.959 132.387 224.934 131.312C224.346 130.662 223.809 129.65 223.559 128.812C223.371 128.087 223.309 126.312 223.484 125.6C224.021 123.1 225.909 121.35 228.609 120.85C229.484 120.675 231.546 120.75 232.409 120.975L232.384 121Z" fill="white"/>
</g>
<path d="M185.714 160.92H184.674C183.506 160.92 183.122 161.272 182.962 163.48L182.498 163.448L182.706 160.68L182.754 160.2H191.57L191.602 160.68L191.81 163.448L191.362 163.48C191.186 161.272 190.818 160.92 189.634 160.92H188.594C188.258 160.92 188.066 161.112 188.066 161.464V171.352C188.066 172.328 188.274 172.616 189.762 172.616V173H184.546V172.616C186.05 172.616 186.258 172.328 186.258 171.352V161.464C186.258 161.112 186.066 160.92 185.714 160.92ZM192.434 176.744C191.682 176.744 191.106 176.296 191.106 175.64C191.106 175.112 191.458 174.824 191.906 174.824C192.306 174.824 192.514 175.064 192.69 175.304C192.882 175.592 193.026 175.672 193.266 175.672C193.682 175.672 194.018 175.048 194.306 173.944C194.354 173.656 194.306 173.032 194.178 172.424L192.194 166.104C191.874 165.112 191.586 164.904 190.882 164.904V164.52H194.626V164.904C193.57 164.904 193.57 165.112 193.858 166.104L195.202 170.808H195.282L196.61 166.104C196.882 165.112 196.882 164.904 195.842 164.904V164.52H198.482V164.904C197.842 164.904 197.554 165.112 197.266 166.104L195.25 172.904C194.594 175.096 193.938 176.696 192.434 176.744ZM203.532 164.232C205.148 164.232 205.916 165.976 205.916 168.44C205.916 171.064 204.908 173.192 203.164 173.192C202.412 173.192 201.676 172.808 201.244 172.04H201.212V174.872C201.212 175.912 201.372 176.136 202.348 176.136V176.52H198.54V176.136C199.516 176.136 199.66 175.912 199.66 174.872V166.424C199.66 165.352 199.66 165.128 198.7 165.512L198.556 165.144L200.956 164.2L201.212 164.44V165.848H201.276C201.9 164.824 202.636 164.232 203.532 164.232ZM202.764 172.424C203.852 172.424 204.236 170.632 204.236 168.68C204.236 166.536 203.804 165.336 202.876 165.336C202.22 165.336 201.628 165.912 201.212 166.616V169.528C201.212 171.32 201.916 172.424 202.764 172.424ZM212.521 169.576H212.905C212.569 172.152 211.481 173.256 209.977 173.256C208.169 173.256 207.033 171.544 207.033 168.904C207.033 166.376 208.153 164.232 210.057 164.232C211.929 164.232 212.809 165.992 212.809 168.328H208.585V168.36C208.585 170.536 209.257 172.072 210.585 172.072C211.305 172.072 212.137 171.512 212.521 169.576ZM210.057 164.904C209.097 164.904 208.697 166.072 208.601 167.672H211.273C211.273 166.136 211.001 164.904 210.057 164.904ZM217.715 173.256C216.739 173.256 215.843 172.808 215.203 172.184C214.947 171.928 214.755 171.944 214.691 172.312L214.547 173.048H214.147L214.179 168.264H214.595C214.707 170.584 215.923 172.584 217.683 172.584C219.059 172.584 219.651 171.512 219.651 170.52C219.651 169.048 218.515 168.104 217.203 167.112C215.603 165.896 214.259 164.888 214.259 163C214.259 161.096 215.635 159.944 217.443 159.944C218.371 159.944 219.011 160.232 219.571 160.76C219.843 161 220.067 160.936 220.115 160.584L220.195 160.104H220.579L220.771 164.312H220.371C220.211 162.344 219.251 160.6 217.555 160.6C216.371 160.6 215.731 161.464 215.731 162.456C215.731 163.704 216.659 164.472 218.147 165.592C219.811 166.824 221.123 167.928 221.123 169.896C221.123 171.912 219.683 173.256 217.715 173.256ZM225.149 173.256C223.277 173.256 222.189 171.464 222.189 168.904C222.189 166.248 223.357 164.232 225.421 164.232C226.765 164.232 227.677 165.112 227.677 166.312C227.677 166.984 227.373 167.384 226.829 167.384C226.333 167.384 226.077 167.048 226.077 166.648C226.077 166.376 226.189 166.056 226.189 165.72C226.189 165.176 225.885 164.904 225.405 164.904C224.253 164.904 223.773 166.488 223.773 168.296C223.773 170.376 224.413 172.04 225.725 172.04C226.445 172.04 227.261 171.496 227.549 169.48H227.933C227.757 172.136 226.589 173.256 225.149 173.256ZM233.425 164.232C233.985 164.232 234.289 164.552 234.289 165.08C234.289 165.704 233.921 166.104 233.505 166.104C233.217 166.104 233.089 165.992 232.881 165.768C232.673 165.56 232.593 165.496 232.401 165.496C232.033 165.496 231.601 166.024 231.265 167V171.256C231.265 172.344 231.505 172.6 232.961 172.6V173H228.641V172.616C229.569 172.616 229.729 172.376 229.729 171.352V166.424C229.729 165.352 229.729 165.128 228.769 165.528L228.609 165.16L229.889 164.648L230.977 164.2L231.265 164.44V165.976H231.313C231.761 165.128 232.545 164.232 233.425 164.232ZM236.588 162.664C235.98 162.664 235.548 162.248 235.548 161.688C235.548 161.112 235.98 160.696 236.588 160.696C237.18 160.696 237.612 161.112 237.612 161.688C237.612 162.248 237.18 162.664 236.588 162.664ZM237.484 164.44V171.352C237.484 172.376 237.644 172.616 238.62 172.616V173H234.812V172.616C235.788 172.616 235.948 172.376 235.948 171.352V166.424C235.948 165.352 235.932 165.128 235.004 165.512L234.86 165.144L237.212 164.2L237.484 164.44ZM244.017 164.232C245.633 164.232 246.401 165.976 246.401 168.44C246.401 171.064 245.393 173.192 243.649 173.192C242.897 173.192 242.161 172.808 241.729 172.04H241.697V174.872C241.697 175.912 241.857 176.136 242.833 176.136V176.52H239.025V176.136C240.001 176.136 240.145 175.912 240.145 174.872V166.424C240.145 165.352 240.145 165.128 239.185 165.512L239.041 165.144L241.441 164.2L241.697 164.44V165.848H241.761C242.385 164.824 243.121 164.232 244.017 164.232ZM243.249 172.424C244.337 172.424 244.721 170.632 244.721 168.68C244.721 166.536 244.289 165.336 243.361 165.336C242.705 165.336 242.113 165.912 241.697 166.616V169.528C241.697 171.32 242.401 172.424 243.249 172.424ZM251.556 169.416H252.004C252.004 171.912 251.508 173.256 249.94 173.256C248.692 173.256 248.036 172.504 248.036 170.264V165.176H246.916V164.584C248.084 164.552 248.82 163.688 248.98 162.184H249.556V164.52H251.476V165.176H249.588V169.848C249.588 171.272 249.732 172.216 250.484 172.216C251.204 172.216 251.556 171.32 251.556 169.416Z" fill="#014620"/>
<g clip-path="url(#clip5_10_239)">
<path d="M318.991 114.189C318.407 113.989 317.802 113.799 317.179 113.62C317.282 113.203 317.376 112.792 317.459 112.387C318.831 105.747 317.934 100.397 314.872 98.6356C311.935 96.9467 307.132 98.7077 302.282 102.917C301.816 103.322 301.348 103.751 300.88 104.2C300.569 103.903 300.258 103.616 299.948 103.341C294.864 98.8396 289.769 96.9426 286.709 98.7091C283.776 100.403 282.907 105.432 284.142 111.725C284.261 112.333 284.4 112.954 284.558 113.585C283.837 113.789 283.141 114.007 282.474 114.239C276.515 116.311 272.709 119.558 272.709 122.927C272.709 126.406 276.794 129.896 283.002 132.012C283.492 132.179 284 132.337 284.524 132.487C284.354 133.17 284.206 133.838 284.082 134.491C282.905 140.675 283.824 145.585 286.75 147.269C289.772 149.007 294.844 147.22 299.783 142.914C300.174 142.574 300.566 142.213 300.958 141.835C301.467 142.323 301.975 142.786 302.48 143.219C307.264 147.325 311.989 148.983 314.912 147.295C317.932 145.552 318.913 140.277 317.639 133.859C317.542 133.369 317.428 132.868 317.301 132.359C317.657 132.254 318.007 132.145 318.348 132.033C324.801 129.9 329 126.453 329 122.927C329 119.546 325.071 116.277 318.991 114.189ZM317.592 129.756C317.284 129.858 316.968 129.956 316.646 130.051C315.934 127.802 314.972 125.41 313.796 122.939C314.919 120.527 315.843 118.165 316.535 115.931C317.111 116.097 317.67 116.272 318.209 116.457C323.418 118.246 326.595 120.89 326.595 122.927C326.595 125.097 323.164 127.915 317.592 129.756ZM315.28 134.325C315.843 137.163 315.924 139.729 315.55 141.734C315.215 143.537 314.541 144.738 313.707 145.22C311.933 146.244 308.14 144.913 304.048 141.401C303.579 140.999 303.107 140.569 302.633 140.114C304.219 138.384 305.804 136.373 307.351 134.139C310.073 133.898 312.644 133.504 314.975 132.967C315.09 133.429 315.192 133.882 315.28 134.325ZM291.9 145.043C290.166 145.653 288.786 145.671 287.952 145.191C286.176 144.169 285.438 140.227 286.445 134.938C286.56 134.332 286.697 133.71 286.855 133.074C289.161 133.583 291.714 133.949 294.441 134.169C295.999 136.355 297.63 138.364 299.274 140.123C298.914 140.469 298.557 140.798 298.201 141.108C296.017 143.012 293.828 144.363 291.9 145.043ZM283.78 129.743C281.035 128.807 278.768 127.591 277.214 126.264C275.818 125.072 275.113 123.888 275.113 122.927C275.113 120.883 278.169 118.275 283.266 116.503C283.884 116.288 284.532 116.086 285.204 115.895C285.908 118.18 286.832 120.57 287.947 122.986C286.818 125.437 285.88 127.865 285.169 130.177C284.69 130.039 284.226 129.895 283.78 129.743ZM286.502 111.265C285.444 105.873 286.146 101.805 287.914 100.785C289.797 99.6974 293.962 101.248 298.351 105.134C298.631 105.383 298.913 105.643 299.196 105.912C297.56 107.663 295.944 109.657 294.4 111.83C291.753 112.075 289.219 112.468 286.889 112.994C286.742 112.407 286.612 111.829 286.502 111.265ZM310.783 117.245C310.226 116.285 309.654 115.348 309.071 114.437C310.867 114.663 312.588 114.964 314.204 115.332C313.719 116.882 313.114 118.504 312.403 120.166C311.892 119.199 311.352 118.224 310.783 117.245ZM300.881 107.626C301.99 108.824 303.101 110.162 304.194 111.614C303.093 111.562 301.978 111.535 300.854 111.535C299.741 111.535 298.635 111.562 297.541 111.613C298.634 110.174 299.755 108.838 300.881 107.626ZM290.916 117.261C290.359 118.223 289.829 119.193 289.327 120.164C288.626 118.508 288.027 116.879 287.538 115.306C289.144 114.948 290.857 114.655 292.641 114.433C292.05 115.352 291.474 116.296 290.916 117.261ZM292.693 131.593C290.849 131.388 289.111 131.11 287.505 130.761C288.002 129.16 288.614 127.497 289.329 125.805C289.833 126.775 290.365 127.745 290.925 128.71C291.496 129.692 292.086 130.654 292.693 131.593ZM300.948 138.398C299.808 137.171 298.671 135.815 297.561 134.355C298.639 134.397 299.738 134.419 300.854 134.419C302.002 134.419 303.136 134.393 304.252 134.344C303.156 135.829 302.049 137.188 300.948 138.398ZM312.425 125.719C313.178 127.429 313.812 129.084 314.316 130.657C312.684 131.028 310.921 131.328 309.065 131.55C309.649 130.626 310.226 129.673 310.793 128.693C311.366 127.701 311.911 126.708 312.425 125.719ZM308.71 127.495C307.83 129.017 306.926 130.469 306.009 131.84C304.339 131.959 302.613 132.021 300.854 132.021C299.103 132.021 297.399 131.966 295.758 131.86C294.804 130.471 293.881 129.014 293.006 127.508C292.134 126.006 291.332 124.491 290.605 122.985C291.332 121.475 292.132 119.958 292.999 118.459L292.999 118.459C293.868 116.956 294.783 115.506 295.728 114.126C297.403 113.999 299.119 113.934 300.854 113.934C302.597 113.934 304.316 114 305.99 114.127C306.92 115.498 307.829 116.943 308.702 118.446C309.584 119.967 310.395 121.473 311.129 122.951C310.397 124.454 309.588 125.975 308.71 127.495ZM313.67 100.713C315.555 101.797 316.288 106.17 315.104 111.903C315.029 112.269 314.944 112.642 314.851 113.019C312.516 112.482 309.98 112.082 307.325 111.834C305.778 109.637 304.175 107.64 302.566 105.911C302.999 105.496 303.431 105.1 303.861 104.727C308.017 101.12 311.901 99.6956 313.67 100.713ZM300.854 117.914C303.63 117.914 305.881 120.158 305.881 122.927C305.881 125.696 303.63 127.94 300.854 127.94C298.078 127.94 295.828 125.696 295.828 122.927C295.828 120.158 298.078 117.914 300.854 117.914Z" fill="#257BC2"/>
</g>
<path d="M290.198 168.6L291.558 171.256C292.054 172.232 292.31 172.616 293.478 172.616V173H292.694C290.566 173 290.294 172.792 289.542 171.176L287.446 166.936H287.206C286.902 166.936 286.614 166.92 286.342 166.904V171.352C286.342 172.328 286.566 172.616 288.054 172.616V173H282.854V172.616C284.342 172.616 284.55 172.328 284.55 171.352V161.848C284.55 160.872 284.342 160.584 282.854 160.584V160.2H287.782C290.646 160.2 291.926 161.432 291.926 163.464C291.926 165.608 290.438 166.552 288.566 166.84C289.206 167.032 289.638 167.384 290.198 168.6ZM286.342 161.448V166.28C286.63 166.312 286.934 166.328 287.254 166.328C288.886 166.328 290.086 165.528 290.086 163.512C290.086 161.768 289.19 160.856 287.638 160.856C287.302 160.856 286.966 160.904 286.63 161.016C286.422 161.096 286.342 161.256 286.342 161.448ZM298.8 169.576H299.184C298.848 172.152 297.76 173.256 296.256 173.256C294.448 173.256 293.312 171.544 293.312 168.904C293.312 166.376 294.432 164.232 296.336 164.232C298.208 164.232 299.088 165.992 299.088 168.328H294.864V168.36C294.864 170.536 295.536 172.072 296.864 172.072C297.584 172.072 298.416 171.512 298.8 169.576ZM296.336 164.904C295.376 164.904 294.976 166.072 294.88 167.672H297.552C297.552 166.136 297.28 164.904 296.336 164.904ZM306.749 171.192H307.117C307.069 172.408 306.685 173.256 305.629 173.256C304.717 173.256 304.173 172.648 304.173 171.16V170.872C303.805 172.376 302.957 173.256 301.805 173.256C300.669 173.256 300.029 172.408 300.029 171.368C300.029 169.352 302.349 168.456 304.173 167.64V166.712C304.173 165.336 303.725 164.856 302.941 164.856C302.317 164.856 301.869 165.176 301.869 165.704C301.869 166.072 302.093 166.28 302.093 166.648C302.093 167.08 301.821 167.384 301.309 167.384C300.733 167.384 300.429 166.984 300.429 166.392C300.429 165.208 301.581 164.216 303.197 164.216C304.749 164.216 305.709 165.096 305.709 166.824V171.544C305.709 172.328 305.869 172.52 306.125 172.52C306.461 172.52 306.717 172.2 306.749 171.192ZM302.429 172.04C303.069 172.04 303.757 171.448 304.173 170.056V168.168C302.877 168.84 301.565 169.608 301.565 170.936C301.565 171.608 301.869 172.04 302.429 172.04ZM310.537 173.256C308.665 173.256 307.577 171.464 307.577 168.904C307.577 166.248 308.745 164.232 310.809 164.232C312.153 164.232 313.065 165.112 313.065 166.312C313.065 166.984 312.761 167.384 312.217 167.384C311.721 167.384 311.465 167.048 311.465 166.648C311.465 166.376 311.577 166.056 311.577 165.72C311.577 165.176 311.273 164.904 310.793 164.904C309.641 164.904 309.161 166.488 309.161 168.296C309.161 170.376 309.801 172.04 311.113 172.04C311.833 172.04 312.649 171.496 312.937 169.48H313.321C313.145 172.136 311.977 173.256 310.537 173.256ZM318.459 169.416H318.907C318.907 171.912 318.411 173.256 316.843 173.256C315.595 173.256 314.939 172.504 314.939 170.264V165.176H313.819V164.584C314.987 164.552 315.723 163.688 315.883 162.184H316.459V164.52H318.379V165.176H316.491V169.848C316.491 171.272 316.635 172.216 317.387 172.216C318.107 172.216 318.459 171.32 318.459 169.416Z" fill="#014620"/>
<path d="M359.514 143.986L356.292 107.819H391.708L388.486 143.973L373.973 148L359.514 143.986Z" fill="#E44D26"/>
<path d="M374 144.931L385.723 141.681L388.486 110.777H374V144.931Z" fill="#F16529"/>
<path d="M374 124.194H368.125L367.723 119.652H374V115.223H373.986H362.875L362.986 116.402L364.069 128.625H374V124.194Z" fill="#EBEBEB"/>
<path d="M374 135.708L373.986 135.723L369.042 134.375L368.723 130.848H366.319H364.277L364.889 137.806L373.986 140.333L374 140.319V135.708Z" fill="#EBEBEB"/>
<path d="M359.583 98H361.833V100.223H363.889V98H366.139V104.736H363.889V102.473H361.833V104.736H359.583V98Z" fill="black"/>
<path d="M369.111 100.236H367.125V98H373.348V100.236H371.361V104.736H369.111V100.236Z" fill="black"/>
<path d="M374.348 98H376.695L378.14 100.375L379.583 98H381.931V104.736H379.694V101.402L378.139 103.805H378.097L376.541 101.402V104.75H374.333V98H374.348Z" fill="black"/>
<path d="M383.056 98H385.306V102.514H388.473V104.736H383.056V98Z" fill="black"/>
<path d="M373.986 124.194V128.625H379.444L378.931 134.375L373.986 135.708V140.333L383.069 137.806L383.139 137.056L384.181 125.389L384.292 124.194H383.098H373.986Z" fill="white"/>
<path d="M373.986 115.223V117.973V119.639V119.652H384.681H384.694L384.792 118.652L384.986 116.402L385.098 115.223H373.986Z" fill="white"/>
<path d="M362.6 160.2V160.584C361.112 160.584 360.888 160.872 360.888 161.848V171.352C360.888 172.328 361.112 172.616 362.6 172.616V173H357.48V172.616C358.888 172.616 359.096 172.328 359.096 171.352V166.584H354.136V171.352C354.136 172.328 354.328 172.616 355.736 172.616V173H350.632V172.616C352.12 172.616 352.328 172.328 352.328 171.352V161.848C352.328 160.872 352.12 160.584 350.632 160.584V160.2H355.736V160.584C354.328 160.584 354.136 160.872 354.136 161.848V165.896H359.096V161.848C359.096 160.872 358.888 160.584 357.48 160.584V160.2H362.6ZM366.443 160.92H365.403C364.235 160.92 363.851 161.272 363.691 163.48L363.227 163.448L363.435 160.68L363.483 160.2H372.299L372.331 160.68L372.539 163.448L372.091 163.48C371.915 161.272 371.547 160.92 370.363 160.92H369.323C368.987 160.92 368.795 161.112 368.795 161.464V171.352C368.795 172.328 369.003 172.616 370.491 172.616V173H365.275V172.616C366.779 172.616 366.987 172.328 366.987 171.352V161.464C366.987 161.112 366.795 160.92 366.443 160.92ZM377.179 160.2L380.427 170.312H380.459L383.723 160.2H387.691V160.584C386.187 160.584 385.979 160.872 385.979 161.848V171.352C385.979 172.328 386.187 172.616 387.691 172.616V173H382.475V172.616C383.963 172.616 384.171 172.328 384.171 171.352V161.128H384.123L380.219 173.32H379.499L375.611 161.288H375.563V171.352C375.563 172.328 375.787 172.616 377.275 172.616V173H373.195V172.616C374.683 172.616 374.891 172.328 374.891 171.352V161.848C374.891 160.872 374.683 160.584 373.195 160.584V160.2H377.179ZM393.504 160.2V160.584C392 160.584 391.792 160.872 391.792 161.848V171.224C391.792 172.12 391.984 172.28 392.784 172.28H394.72C395.92 172.28 396.384 171.8 396.976 169.224L397.424 169.336L396.688 172.552L396.592 173H388.288V172.616C389.776 172.616 389.984 172.328 389.984 171.352V161.848C389.984 160.872 389.776 160.584 388.288 160.584V160.2H393.504Z" fill="#014620"/>
<path d="M429.514 143.986L426.292 107.819H461.708L458.486 143.973L443.973 148L429.514 143.986Z" fill="#1F72B5"/>
<path d="M444 144.931L455.723 141.681L458.486 110.777H444V144.931Z" fill="#51A3DC"/>
<path d="M432.486 119.125L432.056 114.944H455.944L455.667 119.792L445.569 124.25H455.25L454.208 138L444.444 140.625L434.319 138.167L433.694 131.194H438.167L438.417 134.875L444.277 135.973L449.694 134.306L449.944 128.417H433.306L433 124.042L444 119.223L432.486 119.125Z" fill="#EBEBEB"/>
<path d="M433 124.042L433.306 128.417H444V119.223L433 124.042Z" fill="#CECECE"/>
<path d="M438.417 134.875L438.167 131.194H433.694L434.319 138.167L444 140.514V135.917L438.417 134.875Z" fill="#CECECE"/>
<path d="M432.056 114.944L432.486 119.125L444 119.223V114.944H432.056Z" fill="#CECECE"/>
<path d="M447.333 99.667V98H440.667V101.889H445.25V103.139H440.527V104.667H447.194V100.639H442.473V99.667H447.333Z" fill="black"/>
<path d="M435.25 101.931V103.139H439.973V104.667H433.306V100.681V98H439.833V99.667H435.25V101.931Z" fill="black"/>
<path d="M454.694 99.667V98H448.027V101.889H452.611V103.139H447.889V104.667H454.556V100.639H449.833V99.667H454.694Z" fill="black"/>
<path d="M431.162 166.712C431.162 162.856 433.242 159.944 436.346 159.944C437.37 159.944 438.234 160.232 438.97 160.936C439.21 161.16 439.402 161.096 439.434 160.792L439.514 160.088H439.882L440.122 164.616H439.754C439.306 162.088 438.33 160.648 436.634 160.648C434.394 160.648 433.114 163.16 433.114 166.504C433.114 169.864 434.426 172.312 436.634 172.312C438.586 172.312 439.754 170.376 440.09 167.8H440.554C440.25 171.144 438.826 173.256 436.106 173.256C432.938 173.256 431.162 170.36 431.162 166.712ZM445.436 173.256C444.46 173.256 443.564 172.808 442.924 172.184C442.668 171.928 442.476 171.944 442.412 172.312L442.268 173.048H441.868L441.9 168.264H442.316C442.428 170.584 443.644 172.584 445.404 172.584C446.78 172.584 447.372 171.512 447.372 170.52C447.372 169.048 446.236 168.104 444.924 167.112C443.324 165.896 441.98 164.888 441.98 163C441.98 161.096 443.356 159.944 445.164 159.944C446.092 159.944 446.732 160.232 447.292 160.76C447.564 161 447.788 160.936 447.836 160.584L447.916 160.104H448.3L448.492 164.312H448.092C447.932 162.344 446.972 160.6 445.276 160.6C444.092 160.6 443.452 161.464 443.452 162.456C443.452 163.704 444.38 164.472 445.868 165.592C447.532 166.824 448.844 167.928 448.844 169.896C448.844 171.912 447.404 173.256 445.436 173.256ZM453.436 173.256C452.46 173.256 451.564 172.808 450.924 172.184C450.668 171.928 450.476 171.944 450.412 172.312L450.268 173.048H449.868L449.9 168.264H450.316C450.428 170.584 451.644 172.584 453.404 172.584C454.78 172.584 455.372 171.512 455.372 170.52C455.372 169.048 454.236 168.104 452.924 167.112C451.324 165.896 449.98 164.888 449.98 163C449.98 161.096 451.356 159.944 453.164 159.944C454.092 159.944 454.732 160.232 455.292 160.76C455.564 161 455.788 160.936 455.836 160.584L455.916 160.104H456.3L456.492 164.312H456.092C455.932 162.344 454.972 160.6 453.276 160.6C452.092 160.6 451.452 161.464 451.452 162.456C451.452 163.704 452.38 164.472 453.868 165.592C455.532 166.824 456.844 167.928 456.844 169.896C456.844 171.912 455.404 173.256 453.436 173.256Z" fill="#014620"/>
<mask id="path-52-inside-3_10_239" fill="white">
<path d="M0.708618 196H74.7086V278H0.708618V196Z"/>
</mask>
<path d="M72.7086 196V278H76.7086V196H72.7086Z" fill="#E95400" fill-opacity="0.7" mask="url(#path-52-inside-3_10_239)"/>
<rect x="2.70862" y="196" width="50" height="50" fill="#99871E"/>
<path d="M36.8336 222.309H29.0211V230.122C29.0211 230.536 28.8565 230.934 28.5635 231.227C28.2704 231.52 27.873 231.684 27.4586 231.684C27.0442 231.684 26.6468 231.52 26.3538 231.227C26.0607 230.934 25.8961 230.536 25.8961 230.122V222.309H18.0836C17.6692 222.309 17.2718 222.145 16.9788 221.852C16.6857 221.559 16.5211 221.161 16.5211 220.747C16.5211 220.332 16.6857 219.935 16.9788 219.642C17.2718 219.349 17.6692 219.184 18.0836 219.184H25.8961V211.372C25.8961 210.957 26.0607 210.56 26.3538 210.267C26.6468 209.974 27.0442 209.809 27.4586 209.809C27.873 209.809 28.2704 209.974 28.5635 210.267C28.8565 210.56 29.0211 210.957 29.0211 211.372V219.184H36.8336C37.248 219.184 37.6454 219.349 37.9385 219.642C38.2315 219.935 38.3961 220.332 38.3961 220.747C38.3961 221.161 38.2315 221.559 37.9385 221.852C37.6454 222.145 37.248 222.309 36.8336 222.309Z" fill="#F5E1D0"/>
<path d="M11.3042 273H8.79218V261.16H11.3042L14.8242 269.992L18.3602 261.16H20.9042V273H18.3922V270.52C18.3922 267.96 18.3922 267.4 18.5202 266.52L16.0082 273H13.6402L11.1442 266.52C11.2882 267.4 11.3042 268.392 11.3042 269.688V273ZM24.2823 263.752C23.4983 263.752 22.8743 263.128 22.8743 262.344C22.8743 261.56 23.4983 260.952 24.2823 260.952C25.0503 260.952 25.6743 261.56 25.6743 262.344C25.6743 263.128 25.0503 263.752 24.2823 263.752ZM23.0663 273V265H25.5303V273H23.0663ZM26.8028 270.472H29.1388C29.1708 271.032 29.5868 271.368 30.3388 271.368C31.1068 271.368 31.4588 271.096 31.4588 270.68C31.4588 270.44 31.3308 270.184 30.7388 270.056L29.2668 269.736C27.7948 269.416 27.0748 268.776 27.0748 267.368C27.0748 265.704 28.4988 264.744 30.4188 264.744C32.2748 264.744 33.5708 265.832 33.5708 267.448H31.2348C31.2348 266.904 30.8988 266.536 30.3068 266.536C29.7468 266.536 29.3948 266.824 29.3948 267.256C29.3948 267.624 29.6988 267.832 30.2588 267.96L31.7468 268.28C33.0588 268.568 33.7788 269.176 33.7788 270.456C33.7788 272.168 32.3228 273.208 30.2428 273.208C28.1308 273.208 26.8028 272.088 26.8028 270.472ZM34.6343 268.968C34.6343 266.504 36.3303 264.744 38.7303 264.744C41.0983 264.744 42.6663 266.04 42.8263 268.136H40.3463C40.1703 267.336 39.6743 266.952 38.8263 266.952C37.7863 266.952 37.1143 267.736 37.1143 268.968C37.1143 270.248 37.7383 271 38.7943 271C39.6583 271 40.1863 270.6 40.3463 269.816H42.8263C42.6663 271.832 41.0343 273.208 38.7943 273.208C36.2663 273.208 34.6343 271.528 34.6343 268.968ZM45.3992 273.208C44.5832 273.208 43.9272 272.552 43.9272 271.768C43.9272 270.968 44.5832 270.312 45.3992 270.312C46.1832 270.312 46.8712 270.968 46.8712 271.768C46.8712 272.552 46.1832 273.208 45.3992 273.208Z" fill="#014620" fill-opacity="0.7"/>
<g clip-path="url(#clip6_10_239)">
<path d="M163.617 221.554C163.617 219.504 163.451 218.009 163.091 216.457H139.707V225.709H153.433C153.156 228.008 151.662 231.47 148.341 233.797L148.294 234.106L155.688 239.839L156.2 239.89C160.905 235.542 163.617 229.143 163.617 221.554Z" fill="#4285F4"/>
<path d="M139.707 245.929C146.431 245.929 152.077 243.713 156.2 239.89L148.341 233.797C146.238 235.265 143.415 236.289 139.707 236.289C133.12 236.289 127.53 231.941 125.538 225.93L125.246 225.955L117.557 231.91L117.457 232.19C121.553 240.333 129.965 245.929 139.707 245.929Z" fill="#34A853"/>
<path d="M125.538 225.93C125.012 224.379 124.708 222.717 124.708 221C124.708 219.283 125.012 217.621 125.51 216.07L125.496 215.739L117.712 209.688L117.457 209.81C115.769 213.189 114.8 216.984 114.8 221C114.8 225.016 115.769 228.811 117.457 232.19L125.538 225.93Z" fill="#FBBC05"/>
<path d="M139.707 205.71C144.383 205.71 147.538 207.732 149.337 209.422L156.366 202.553C152.049 198.537 146.431 196.071 139.707 196.071C129.965 196.071 121.553 201.666 117.457 209.81L125.51 216.07C127.53 210.059 133.12 205.71 139.707 205.71Z" fill="#EB4335"/>
</g>
<path d="M100.921 271.256C97.2407 271.256 95.4327 268.36 95.4327 264.68C95.4327 260.808 97.4647 257.944 100.841 257.944C101.977 257.944 102.873 258.248 103.721 258.968C103.961 259.192 104.153 259.128 104.185 258.824L104.265 258.088H104.649L104.857 262.616H104.489C104.041 260.04 102.937 258.648 101.113 258.648C98.6967 258.648 97.3847 261.112 97.3847 264.472C97.3847 267.88 98.6807 270.488 101.161 270.488C102.361 270.488 103.193 269.816 103.593 269.192V266.04C103.593 265.064 103.209 264.776 100.601 264.776V264.392H106.265V264.776C105.401 264.776 105.273 265.016 105.273 266.04V269.112C104.361 270.408 102.825 271.256 100.921 271.256ZM110.372 271.256C108.292 271.256 106.932 269.416 106.932 266.792C106.932 264.216 108.196 262.232 110.372 262.232C112.436 262.232 113.812 264.072 113.812 266.696C113.812 269.272 112.532 271.256 110.372 271.256ZM110.612 270.552C111.748 270.552 112.196 269.048 112.196 267.64C112.196 265.464 111.54 262.936 110.132 262.936C108.996 262.936 108.532 264.44 108.532 265.848C108.532 268.024 109.204 270.552 110.612 270.552ZM118.325 271.256C116.245 271.256 114.885 269.416 114.885 266.792C114.885 264.216 116.149 262.232 118.325 262.232C120.389 262.232 121.765 264.072 121.765 266.696C121.765 269.272 120.485 271.256 118.325 271.256ZM118.565 270.552C119.701 270.552 120.149 269.048 120.149 267.64C120.149 265.464 119.493 262.936 118.085 262.936C116.949 262.936 116.485 264.44 116.485 265.848C116.485 268.024 117.157 270.552 118.565 270.552ZM125.707 269.72H127.563C129.227 269.72 129.979 270.2 129.979 271.416C129.979 273.192 128.059 274.776 125.371 274.776C123.659 274.776 122.171 274.152 122.171 272.84C122.171 271.928 122.843 271.32 123.851 270.872C123.195 270.616 122.907 270.168 122.907 269.624C122.907 268.888 123.419 268.36 124.139 267.912C123.355 267.384 122.907 266.472 122.907 265.368C122.907 263.576 124.059 262.248 125.899 262.248C126.507 262.248 127.035 262.392 127.483 262.664C128.123 262.296 128.811 262.136 129.307 262.136C129.771 262.136 129.899 262.36 129.899 262.616C129.899 262.92 129.707 263.16 129.323 263.16C128.715 263.16 128.283 262.84 127.819 262.904C128.459 263.448 128.827 264.28 128.827 265.32C128.827 267.144 127.675 268.408 125.883 268.408C125.387 268.408 124.939 268.312 124.555 268.136C124.235 268.392 124.027 268.648 124.027 268.968C124.027 269.384 124.155 269.72 125.707 269.72ZM125.691 262.856C124.811 262.856 124.475 263.8 124.475 264.808C124.475 266.152 124.907 267.784 126.075 267.784C126.907 267.784 127.275 266.984 127.275 265.912C127.275 264.52 126.795 262.856 125.691 262.856ZM125.755 273.816C127.787 273.816 129.083 272.808 129.083 271.912C129.083 271.288 128.651 271.144 127.515 271.144H125.531C125.083 271.144 124.699 271.112 124.379 271.032C123.835 271.464 123.451 271.944 123.451 272.456C123.451 273.128 124.075 273.816 125.755 273.816ZM132.912 258.04V269.352C132.912 270.376 133.056 270.616 134.032 270.616V271H130.224V270.616C131.2 270.616 131.36 270.376 131.36 269.352V260.104C131.36 259.08 131.36 258.872 130.4 259.352L130.24 259L132.672 257.816L132.912 258.04ZM140.091 267.576H140.475C140.139 270.152 139.051 271.256 137.547 271.256C135.739 271.256 134.603 269.544 134.603 266.904C134.603 264.376 135.723 262.232 137.627 262.232C139.499 262.232 140.379 263.992 140.379 266.328H136.155V266.36C136.155 268.536 136.827 270.072 138.155 270.072C138.875 270.072 139.707 269.512 140.091 267.576ZM137.627 262.904C136.667 262.904 136.267 264.072 136.171 265.672H138.843C138.843 264.136 138.571 262.904 137.627 262.904ZM148.614 271.256C147.638 271.256 146.742 270.808 146.102 270.184C145.846 269.928 145.654 269.944 145.59 270.312L145.446 271.048H145.046L145.078 266.264H145.494C145.606 268.584 146.822 270.584 148.582 270.584C149.958 270.584 150.55 269.512 150.55 268.52C150.55 267.048 149.414 266.104 148.102 265.112C146.502 263.896 145.158 262.888 145.158 261C145.158 259.096 146.534 257.944 148.342 257.944C149.27 257.944 149.91 258.232 150.47 258.76C150.742 259 150.966 258.936 151.014 258.584L151.094 258.104H151.478L151.67 262.312H151.27C151.11 260.344 150.15 258.6 148.454 258.6C147.27 258.6 146.63 259.464 146.63 260.456C146.63 261.704 147.558 262.472 149.046 263.592C150.71 264.824 152.022 265.928 152.022 267.896C152.022 269.912 150.582 271.256 148.614 271.256ZM158.135 271.256L157.815 270.984L157.783 269.624L157.735 269.608C157.191 270.472 156.423 271.256 155.287 271.256C154.183 271.256 153.543 270.36 153.543 268.952V264.44C153.543 263.4 153.495 263.208 152.519 263.512L152.407 263.16L154.871 262.36L155.095 262.568V268.792C155.095 269.736 155.383 270.184 155.991 270.184C156.631 270.184 157.271 269.64 157.783 268.952V264.44C157.783 263.4 157.751 263.208 156.759 263.512L156.647 263.16L159.127 262.36L159.335 262.568V269.096C159.335 270.168 159.367 270.376 160.359 270.008L160.503 270.376L158.135 271.256ZM162.862 260.664C162.254 260.664 161.822 260.248 161.822 259.688C161.822 259.112 162.254 258.696 162.862 258.696C163.454 258.696 163.886 259.112 163.886 259.688C163.886 260.248 163.454 260.664 162.862 260.664ZM163.758 262.44V269.352C163.758 270.376 163.918 270.616 164.894 270.616V271H161.086V270.616C162.062 270.616 162.222 270.376 162.222 269.352V264.424C162.222 263.352 162.206 263.128 161.278 263.512L161.134 263.144L163.486 262.2L163.758 262.44ZM169.954 267.416H170.402C170.402 269.912 169.906 271.256 168.338 271.256C167.09 271.256 166.434 270.504 166.434 268.264V263.176H165.314V262.584C166.482 262.552 167.218 261.688 167.378 260.184H167.954V262.52H169.874V263.176H167.986V267.848C167.986 269.272 168.13 270.216 168.882 270.216C169.602 270.216 169.954 269.32 169.954 267.416ZM176.654 267.576H177.038C176.702 270.152 175.614 271.256 174.11 271.256C172.302 271.256 171.166 269.544 171.166 266.904C171.166 264.376 172.286 262.232 174.19 262.232C176.062 262.232 176.942 263.992 176.942 266.328H172.718V266.36C172.718 268.536 173.39 270.072 174.718 270.072C175.438 270.072 176.27 269.512 176.654 267.576ZM174.19 262.904C173.23 262.904 172.83 264.072 172.734 265.672H175.406C175.406 264.136 175.134 262.904 174.19 262.904ZM180.824 271.256C180.008 271.256 179.416 270.92 179.08 270.68C178.872 270.52 178.744 270.568 178.648 270.76L178.52 271.08H178.168L178.056 267.624H178.408C178.648 269.528 179.56 270.584 180.664 270.584C181.416 270.584 181.816 270.072 181.816 269.256C181.816 268.536 181.48 268.232 179.992 267.032C178.632 265.96 178.168 265.336 178.168 264.424C178.168 263.096 179.128 262.232 180.392 262.232C181.112 262.232 181.608 262.536 181.896 262.776C182.104 262.968 182.264 262.888 182.312 262.696L182.408 262.344H182.776L182.84 265.144H182.488C182.296 263.896 181.592 262.904 180.52 262.904C179.88 262.904 179.464 263.336 179.464 263.976C179.464 264.648 179.88 265 181 265.88C182.44 267.016 183.128 267.704 183.128 268.92C183.128 270.504 182.056 271.256 180.824 271.256Z" fill="#014620"/>
<g clip-path="url(#clip7_10_239)">
<path d="M248.97 219.758H225.209V196H248.97V219.758Z" fill="#F1511B"/>
<path d="M275.209 219.758H251.445V196H275.207V219.758H275.209Z" fill="#80CC28"/>
<path d="M248.97 246H225.209V222.242H248.97V246Z" fill="#00ADEF"/>
<path d="M275.209 246H251.445V222.242H275.207V246H275.209Z" fill="#FBBC09"/>
</g>
<path d="M208.418 258.2L211.666 268.312H211.698L214.962 258.2H218.93V258.584C217.426 258.584 217.218 258.872 217.218 259.848V269.352C217.218 270.328 217.426 270.616 218.93 270.616V271H213.714V270.616C215.202 270.616 215.41 270.328 215.41 269.352V259.128H215.362L211.458 271.32H210.738L206.85 259.288H206.802V269.352C206.802 270.328 207.026 270.616 208.514 270.616V271H204.434V270.616C205.922 270.616 206.13 270.328 206.13 269.352V259.848C206.13 258.872 205.922 258.584 204.434 258.584V258.2H208.418ZM221.432 260.664C220.824 260.664 220.392 260.248 220.392 259.688C220.392 259.112 220.824 258.696 221.432 258.696C222.024 258.696 222.456 259.112 222.456 259.688C222.456 260.248 222.024 260.664 221.432 260.664ZM222.328 262.44V269.352C222.328 270.376 222.488 270.616 223.464 270.616V271H219.656V270.616C220.632 270.616 220.792 270.376 220.792 269.352V264.424C220.792 263.352 220.776 263.128 219.848 263.512L219.704 263.144L222.056 262.2L222.328 262.44ZM227.118 271.256C225.246 271.256 224.158 269.464 224.158 266.904C224.158 264.248 225.326 262.232 227.39 262.232C228.734 262.232 229.646 263.112 229.646 264.312C229.646 264.984 229.342 265.384 228.798 265.384C228.302 265.384 228.046 265.048 228.046 264.648C228.046 264.376 228.158 264.056 228.158 263.72C228.158 263.176 227.854 262.904 227.374 262.904C226.222 262.904 225.742 264.488 225.742 266.296C225.742 268.376 226.382 270.04 227.694 270.04C228.414 270.04 229.23 269.496 229.518 267.48H229.902C229.726 270.136 228.558 271.256 227.118 271.256ZM235.394 262.232C235.954 262.232 236.258 262.552 236.258 263.08C236.258 263.704 235.89 264.104 235.474 264.104C235.186 264.104 235.058 263.992 234.85 263.768C234.642 263.56 234.562 263.496 234.37 263.496C234.002 263.496 233.57 264.024 233.234 265V269.256C233.234 270.344 233.474 270.6 234.93 270.6V271H230.61V270.616C231.538 270.616 231.698 270.376 231.698 269.352V264.424C231.698 263.352 231.698 263.128 230.738 263.528L230.578 263.16L231.858 262.648L232.946 262.2L233.234 262.44V263.976H233.282C233.73 263.128 234.514 262.232 235.394 262.232ZM240.114 271.256C238.034 271.256 236.674 269.416 236.674 266.792C236.674 264.216 237.938 262.232 240.114 262.232C242.178 262.232 243.554 264.072 243.554 266.696C243.554 269.272 242.274 271.256 240.114 271.256ZM240.354 270.552C241.49 270.552 241.938 269.048 241.938 267.64C241.938 265.464 241.282 262.936 239.874 262.936C238.738 262.936 238.274 264.44 238.274 265.848C238.274 268.024 238.946 270.552 240.354 270.552ZM247.316 271.256C246.5 271.256 245.908 270.92 245.572 270.68C245.364 270.52 245.236 270.568 245.14 270.76L245.012 271.08H244.66L244.548 267.624H244.9C245.14 269.528 246.052 270.584 247.156 270.584C247.908 270.584 248.308 270.072 248.308 269.256C248.308 268.536 247.972 268.232 246.484 267.032C245.124 265.96 244.66 265.336 244.66 264.424C244.66 263.096 245.62 262.232 246.884 262.232C247.604 262.232 248.1 262.536 248.388 262.776C248.596 262.968 248.756 262.888 248.804 262.696L248.9 262.344H249.268L249.332 265.144H248.98C248.788 263.896 248.084 262.904 247.012 262.904C246.372 262.904 245.956 263.336 245.956 263.976C245.956 264.648 246.372 265 247.492 265.88C248.932 267.016 249.62 267.704 249.62 268.92C249.62 270.504 248.548 271.256 247.316 271.256ZM253.989 271.256C251.909 271.256 250.549 269.416 250.549 266.792C250.549 264.216 251.813 262.232 253.989 262.232C256.053 262.232 257.429 264.072 257.429 266.696C257.429 269.272 256.149 271.256 253.989 271.256ZM254.229 270.552C255.365 270.552 255.813 269.048 255.813 267.64C255.813 265.464 255.157 262.936 253.749 262.936C252.613 262.936 252.149 264.44 252.149 265.848C252.149 268.024 252.821 270.552 254.229 270.552ZM262.471 257.768C263.639 257.768 264.407 258.392 264.407 259.016C264.407 259.416 264.135 259.784 263.607 259.784C263.223 259.784 263.031 259.544 262.775 259.16C262.471 258.696 262.343 258.52 262.039 258.52C261.399 258.52 260.967 259.144 260.967 261.048V262.52H262.759V263.176H260.967V269.352C260.967 270.376 261.191 270.616 262.583 270.616V271H258.215V270.616C259.255 270.616 259.415 270.376 259.415 269.352V263.176H258.359V262.648L259.415 262.568V261.336C259.415 258.648 261.063 257.768 262.471 257.768ZM267.993 267.416H268.441C268.441 269.912 267.945 271.256 266.377 271.256C265.129 271.256 264.473 270.504 264.473 268.264V263.176H263.353V262.584C264.521 262.552 265.257 261.688 265.417 260.184H265.993V262.52H267.913V263.176H266.025V267.848C266.025 269.272 266.169 270.216 266.921 270.216C267.641 270.216 267.993 269.32 267.993 267.416ZM272.277 269.992C272.277 269.608 272.581 269.336 272.981 269.336C273.413 269.336 273.637 269.656 273.877 269.96C274.165 270.328 274.405 270.552 275.029 270.552C276.037 270.552 277.173 269.736 277.173 267.592C277.173 265.208 275.701 264.44 274.213 264.44V264.072C275.749 263.624 276.853 262.712 276.853 261.048C276.853 260.008 276.325 259.096 275.093 259.096C273.813 259.096 273.205 259.928 272.949 260.968H272.565C272.837 259.032 274.021 257.944 275.749 257.944C277.317 257.944 278.533 258.984 278.533 260.744C278.533 262.216 277.541 263.368 275.861 264.024V264.072C277.541 264.248 278.965 265.288 278.965 267.384C278.965 269.784 277.077 271.256 274.821 271.256C273.557 271.256 272.277 270.792 272.277 269.992ZM284.751 262.232C286.847 262.232 287.839 264.152 287.839 266.36C287.839 268.776 286.655 271.256 284.191 271.256C281.759 271.256 280.335 269.096 280.335 265.848C280.335 261.752 282.735 258.632 287.023 257.88V258.264C284.335 258.968 283.039 261.112 282.495 263.352C283.007 262.744 283.807 262.232 284.751 262.232ZM284.191 270.6C285.423 270.6 285.999 269.256 285.999 266.76C285.999 264.744 285.583 262.968 284.159 262.968C283.423 262.968 282.767 263.384 282.335 264.152C282.223 264.856 282.175 265.528 282.175 266.168C282.175 268.92 282.895 270.6 284.191 270.6ZM291.34 271.256C290.012 271.256 288.748 270.728 288.748 269.96C288.748 269.56 289.052 269.288 289.452 269.288C289.884 269.288 290.108 269.608 290.348 269.912C290.62 270.264 290.956 270.552 291.5 270.552C292.556 270.552 293.708 269.304 293.708 266.632C293.708 264.296 292.876 263.336 291.676 263.336C291.036 263.336 290.476 263.624 290.028 264.136L289.5 263.752L290.732 258.2H295.324L294.988 259.624H291.228L290.524 263.032L290.588 263.08C291.164 262.6 291.772 262.392 292.428 262.392C294.204 262.392 295.548 263.944 295.548 266.312C295.548 269.592 293.516 271.256 291.34 271.256Z" fill="#014620"/>
<defs>
<clipPath id="clip0_10_239">
<rect width="51.3513" height="50" fill="white" transform="translate(102.533)"/>
</clipPath>
<clipPath id="clip1_10_239">
<rect width="33.3333" height="50" fill="white" transform="translate(186.042)"/>
</clipPath>
<clipPath id="clip2_10_239">
<rect width="51.0563" height="50" fill="white" transform="translate(248.68)"/>
</clipPath>
<clipPath id="clip3_10_239">
<rect width="50" height="50" fill="white" transform="translate(103.209 98)"/>
</clipPath>
<clipPath id="clip4_10_239">
<rect width="50" height="50" fill="white" transform="translate(192.209 98)"/>
</clipPath>
<clipPath id="clip5_10_239">
<rect width="56.2914" height="50" fill="white" transform="translate(272.709 98)"/>
</clipPath>
<clipPath id="clip6_10_239">
<rect width="48.8166" height="50" fill="white" transform="translate(114.8 196)"/>
</clipPath>
<clipPath id="clip7_10_239">
<rect width="50" height="50" fill="white" transform="translate(225.209 196)"/>
</clipPath>
</defs>
</svg>
